<svg width="270" height="215" viewBox="0 0 270 215" fill="none" xmlns="http://www.w3.org/2000/svg">
<path d="M231.336 169.661C231.336 171.53 220.917 176.98 208.54 176.98C196.163 176.98 186.52 171.53 186.52 169.661C186.52 167.792 196.551 168.394 208.94 168.394C221.329 168.394 231.336 167.789 231.336 169.661Z" fill="#504F60"/>
<path opacity="0.2" d="M231.336 169.661C231.336 171.53 220.917 176.98 208.54 176.98C196.163 176.98 186.52 171.53 186.52 169.661" fill="black"/>
<path d="M106.694 135.361C108.703 135.63 110.787 135.801 112.711 135.148C113.014 135.05 113.347 134.832 113.317 134.515C113.295 134.4 113.249 134.291 113.181 134.198C112.455 133.061 111.846 131.847 111.363 130.577C111.344 130.51 111.304 130.452 111.251 130.412C111.188 130.388 111.119 130.388 111.057 130.412C110.169 130.656 109.402 131.255 108.521 131.511C108.071 131.64 107.602 131.677 107.139 131.619C106.739 131.571 106.194 131.226 105.83 131.27C106.036 132.655 106.539 133.948 106.694 135.361Z" fill="white"/>
<path d="M144.684 131.853C146.008 130.903 147.381 129.905 148.162 128.438C148.218 128.35 148.251 128.248 148.256 128.143C148.243 128.04 148.204 127.942 148.144 127.858C147.4 126.62 146.441 125.538 145.317 124.668C144.731 125.101 144.202 125.612 143.742 126.188C143.409 126.556 142.488 127.139 142.479 127.7C142.479 128.017 142.83 128.384 142.994 128.65C143.215 128.992 143.424 129.341 143.624 129.696C143.739 129.87 144.79 131.784 144.684 131.853Z" fill="white"/>
<path d="M114.568 139.603C114.592 139.93 114.506 140.254 114.326 140.522C114.184 140.671 114.009 140.78 113.817 140.839C111.008 141.891 107.757 140.579 104.955 141.615C104.379 141.827 103.834 142.135 103.255 142.337C102.565 142.554 101.853 142.686 101.134 142.73C100.143 142.828 99.1466 142.892 98.1528 142.92C97.3978 142.976 96.639 142.907 95.9047 142.714C95.5375 142.616 95.1943 142.438 94.8972 142.192C94.6002 141.946 94.3561 141.637 94.1808 141.286C94.0284 140.971 93.998 140.606 94.0959 140.268C94.1399 140.153 94.2024 140.046 94.2808 139.952C94.4707 139.729 94.6937 139.539 94.9412 139.391L95.9744 138.694C96.4589 138.336 96.9853 138.044 97.5408 137.826C97.9498 137.686 98.3831 137.626 98.7982 137.509C100.249 137.065 101.358 135.861 102.388 134.705L103.794 133.137C103.926 132.964 104.092 132.824 104.282 132.728C104.477 132.66 104.684 132.639 104.888 132.668C106.254 132.77 107.572 133.232 108.721 134.011C109.014 134.241 109.331 134.437 109.666 134.594C110.49 134.93 111.547 134.676 112.308 134.252C112.669 134.049 112.59 133.935 112.741 133.574C112.893 133.213 113.262 132.981 113.583 133.311C113.68 133.425 113.749 133.562 113.783 133.71C114.086 134.756 113.971 135.88 113.971 136.977C113.962 137.148 113.983 137.32 114.032 137.484C114.109 137.649 114.202 137.806 114.308 137.952C114.329 137.991 114.348 138.031 114.365 138.073C114.551 138.558 114.62 139.083 114.568 139.603Z" fill="#514E7F"/>
<path d="M114.568 139.603C114.592 139.93 114.506 140.254 114.326 140.522C114.184 140.671 114.009 140.78 113.817 140.839C111.008 141.891 107.757 140.579 104.955 141.615C104.379 141.827 103.834 142.135 103.255 142.337C102.565 142.554 101.853 142.686 101.134 142.73C100.143 142.829 99.1466 142.892 98.1528 142.92C97.3978 142.976 96.639 142.907 95.9047 142.714C95.5375 142.616 95.1943 142.438 94.8972 142.192C94.6002 141.946 94.3561 141.637 94.1808 141.286C94.0284 140.971 93.998 140.606 94.0959 140.269C94.1399 140.153 94.2024 140.046 94.2808 139.952C94.4444 140.31 94.5625 140.785 94.6655 140.956C94.8047 141.21 94.994 141.429 95.2207 141.6C95.4475 141.771 95.7065 141.89 95.9805 141.948C96.3906 141.974 96.8017 141.919 97.1924 141.786C99.7374 141.127 102.443 141.118 104.888 140.12C105.727 139.774 106.527 139.315 107.409 139.106C108.29 138.897 109.227 138.954 110.136 138.874C111.572 138.754 112.962 138.301 114.377 138.063C114.56 138.553 114.626 139.081 114.568 139.603Z" fill="#464353"/>
<path d="M151.116 131.66C150.983 132.775 150.307 133.735 149.565 134.55C148.823 135.364 147.984 136.096 147.393 137.034C146.666 138.196 146.338 139.638 145.393 140.62C145.03 140.977 144.623 141.281 144.181 141.523C143.687 141.828 143.164 142.08 142.621 142.274C141.209 142.746 139.688 142.638 138.213 142.524C137.733 142.52 137.259 142.424 136.813 142.242C136.61 142.134 136.415 142.009 136.231 141.868C135.861 141.63 135.55 141.305 135.322 140.918C135.21 140.708 135.179 140.461 135.234 140.227C135.319 139.97 135.463 139.739 135.655 139.556C135.987 139.195 136.344 138.859 136.722 138.551C137.241 138.201 137.708 137.774 138.109 137.284C138.356 136.896 138.537 136.468 138.646 136.017C138.86 135.226 138.991 134.413 139.037 133.593C139.035 133.048 139.089 132.504 139.197 131.971C139.421 131.134 140.015 130.386 139.949 129.521C139.922 129.398 139.932 129.268 139.979 129.151C140.049 129.059 140.148 128.995 140.258 128.97C140.721 128.777 141.209 128.659 141.706 128.618C141.955 128.601 142.205 128.641 142.438 128.736C142.67 128.831 142.88 128.979 143.051 129.17C143.257 129.43 143.393 129.803 143.696 129.905C143.847 129.948 144.004 129.954 144.157 129.924C144.902 129.845 145.69 129.746 146.278 129.243C146.549 128.988 146.768 128.677 146.919 128.33C147.07 127.982 147.151 127.606 147.156 127.224C147.156 126.936 147.032 126.635 147.459 126.591C147.781 126.546 148.035 126.908 148.199 127.129C148.789 127.956 149.395 128.821 149.617 129.829C149.703 129.794 149.794 129.776 149.886 129.775C150.075 129.773 150.262 129.819 150.43 129.909C150.598 129.999 150.743 130.13 150.853 130.291C151.094 130.7 151.188 131.186 151.116 131.66Z" fill="#514E7F"/>
<path d="M151.117 131.66C150.983 132.775 150.308 133.735 149.565 134.55C148.823 135.364 147.984 136.096 147.393 137.034C146.666 138.196 146.339 139.638 145.393 140.62C145.03 140.977 144.623 141.281 144.181 141.523C143.687 141.828 143.164 142.08 142.621 142.274C141.209 142.746 139.688 142.638 138.213 142.524C137.734 142.52 137.259 142.424 136.813 142.242C136.61 142.134 136.415 142.009 136.231 141.869C135.861 141.63 135.55 141.305 135.322 140.918C135.606 140.775 135.916 140.697 136.231 140.69C136.886 140.728 137.364 141.374 137.992 141.574C138.885 141.856 139.776 141.197 140.682 140.972C141.273 140.826 141.894 140.864 142.479 140.655C142.966 140.458 143.416 140.173 143.809 139.812C144.347 139.41 144.825 138.928 145.23 138.38C145.565 137.833 145.845 137.25 146.063 136.641C146.541 135.474 147.104 134.347 147.747 133.27C147.843 133.099 147.958 132.942 148.09 132.801C148.232 132.665 148.393 132.569 148.553 132.449C149.159 131.971 149.411 131.182 149.623 130.409C149.68 130.174 149.761 129.945 149.862 129.727C150.051 129.726 150.238 129.772 150.406 129.862C150.574 129.952 150.719 130.083 150.829 130.244C151.089 130.662 151.192 131.167 151.117 131.66Z" fill="#464353"/>
<path d="M87.5851 32.8778C88.3392 33.4687 88.9598 34.2259 89.403 35.0956C89.8271 35.9637 92.2722 42.6996 92.1298 43.6786C92.9266 42.839 96.0685 42.7028 96.8744 41.8632C97.2107 41.5115 99.0255 39.7562 99.2982 39.3475C99.5709 38.9388 101.595 38.0802 101.816 37.6493C102.643 36.1 95.9503 30.2291 96.8077 28.6987C96.8552 28.6284 96.8796 28.544 96.8774 28.458C96.8579 28.3857 96.819 28.3209 96.7653 28.271C96.2169 27.6849 95.4898 27.3205 94.8293 26.8865C94.1688 26.4524 93.5325 25.8472 93.3538 25.0488C92.7239 25.352 92.1457 25.7609 91.642 26.2591C90.4139 27.3596 89.207 28.4822 88.0214 29.6271C87.5578 30.077 86.661 30.6758 86.4459 31.319C86.1914 32.0097 87.1427 32.5007 87.5851 32.8778Z" fill="#A1616A"/>
<path d="M98.4194 30.3843C97.3926 31.1059 96.4329 31.9269 95.5532 32.8366C94.7231 33.6952 93.9353 34.69 93.7354 35.8908C93.6505 36.3629 93.6627 36.8413 93.593 37.3198C93.29 39.395 91.5751 40.9158 90.8177 42.858C90.5983 43.4574 90.4369 44.0784 90.3359 44.7115C90.1231 45.9116 90.0066 47.1283 89.9875 48.3487C89.9693 49.5305 91.0782 50.3448 91.4842 51.4474C91.8902 52.5499 91.9993 53.6842 92.2053 54.8153C92.5931 56.9507 93.3051 59.0102 94.0232 61.0569C95.5169 65.3722 100.358 77.301 101.852 81.6194C106.43 80.4186 118.616 77.659 122.67 75.1275C124.021 74.2847 113.293 64.7765 114.738 64.1207C114.82 64.1072 114.899 64.0739 114.967 64.0233C115.035 63.9727 115.091 63.9062 115.131 63.829C115.17 63.7519 115.192 63.6663 115.194 63.5789C115.196 63.4915 115.179 63.4047 115.144 63.3254C113.699 56.7163 109.178 51.2858 107.127 44.8509C106.415 42.6172 105.136 40.7099 104.167 38.5871C103.288 36.6639 102.819 34.538 101.767 32.7098C101.569 32.3332 101.31 31.9955 101.001 31.7118C100.739 31.5016 100.455 31.322 100.155 31.1764C99.5556 30.8722 98.9981 30.6916 98.4194 30.3843Z" fill="#514E7F"/>
<path d="M87.8273 32.127C91.7847 32.127 94.9927 28.7722 94.9927 24.6339C94.9927 20.4955 91.7847 17.1407 87.8273 17.1407C83.8699 17.1407 80.6619 20.4955 80.6619 24.6339C80.6619 28.7722 83.8699 32.127 87.8273 32.127Z" fill="#A1616A"/>
<path d="M95.1172 28.1538C95.4743 27.8093 95.9229 27.5862 96.4037 27.5138C96.8846 27.4414 97.3751 27.5231 97.8107 27.7482C98.2954 28.0112 98.7196 28.5435 98.6105 29.1011L102.164 29.1581C102.73 29.142 103.296 29.1962 103.849 29.3197C104.406 29.4465 104.903 29.7726 105.255 30.2417C105.297 30.3019 105.346 30.3748 105.418 30.3843C105.478 30.3853 105.535 30.3651 105.582 30.3273C106.129 30.0405 106.745 29.9302 107.351 30.0104C109.272 30.1403 111.048 31.1447 112.554 32.3994C112.825 32.5946 113.036 32.8689 113.16 33.1883C113.284 33.6097 113.135 34.1388 113.463 34.4398C113.463 37.9249 114.608 41.182 115.371 44.5784C115.508 45.1836 116.062 45.719 116.447 46.1943C116.922 46.7212 117.31 47.3272 117.595 47.9876C118.244 49.7492 117.35 51.8213 117.98 53.5892C118.247 54.3369 118.762 54.9516 119.192 55.6011C119.759 56.3511 120.118 57.25 120.228 58.1991C120.255 58.6237 120.204 59.0514 120.228 59.4665C120.269 60.0373 120.37 60.6016 120.531 61.1488C120.79 62.1712 121.06 63.1924 121.343 64.2126C121.804 65.8601 122.403 67.6376 123.815 68.5152C120.407 69.1204 116.813 69.7128 113.566 68.474C113.113 68.3124 112.682 68.0875 112.287 67.8055C111.114 66.931 110.548 65.4356 110.042 64.0225C109.478 62.4383 108.906 60.8257 108.791 59.1401C108.792 58.604 108.719 58.0705 108.575 57.5559C108.245 56.6371 107.364 56.0827 106.564 55.5726C105.66 55.055 104.842 54.3897 104.14 53.6019C103.791 53.2051 103.524 52.7377 103.356 52.2287C103.187 51.7197 103.12 51.1799 103.158 50.6426C103.219 50.1199 103.416 49.6161 103.434 49.0902C103.452 48.5642 103.228 47.9622 102.746 47.8228C100.265 47.0371 99.0801 43.9638 98.5287 41.3151C98.2908 39.9461 98.1842 38.5557 98.2106 37.1645L98.1773 34.4619C97.8348 34.1362 97.5594 33.7409 97.3677 33.3003C97.176 32.8596 97.0721 32.3828 97.0623 31.8988C97.0952 31.6164 97.0901 31.3306 97.0472 31.0496C96.9273 30.7063 96.7322 30.397 96.4776 30.1467C95.9297 29.5587 95.4709 28.8867 95.1172 28.1538Z" fill="#464353"/>
<path d="M87.485 36.721C87.4032 37.5574 87.585 38.416 87.4062 39.2366C87.3366 39.5535 87.2154 39.8703 87.1275 40.165C86.8589 41.3461 86.9751 42.5871 87.4577 43.6913C87.9397 44.7846 88.5168 45.8293 89.1817 46.8121C89.4066 47.1476 89.5917 47.5104 89.7331 47.8925C89.8477 48.2938 89.9188 48.7072 89.9452 49.125C90.1207 50.8028 90.402 52.4667 90.7875 54.1056C91.1268 55.525 94.9807 67.6597 95.8775 68.7845C96.0402 69.0335 96.287 69.209 96.5683 69.2756C96.7712 69.2836 96.9728 69.2401 97.1561 69.1489L98.974 68.4202C99.1286 68.3707 99.2719 68.2888 99.3951 68.1794C99.5655 67.9712 99.658 67.7056 99.6557 67.4316C99.786 65.8855 95.923 53.6652 95.4321 52.2046C93.9475 47.7943 91.9721 43.5424 91.0056 38.9768C90.736 37.7095 90.5936 35.7578 89.7058 34.7471C89.3392 34.3289 89.4635 34.5063 89.0241 34.7249C88.8021 34.8257 88.5875 34.9432 88.3818 35.0766C88.1247 35.2636 87.9107 35.5082 87.7555 35.7927C87.6004 36.0772 87.5079 36.3944 87.485 36.721Z" fill="#464353"/>
<path d="M93.0022 45.0886C93.49 47.7848 93.993 50.4748 94.4929 53.171L101.607 51.2225C101.664 50.4431 101.267 49.7207 101.001 49.0047C100.352 47.3033 100.337 45.4086 99.8132 43.6597C99.4163 42.329 98.7255 41.106 98.3528 39.7658C98.1377 38.9864 98.0286 38.1816 97.8165 37.3927C97.5891 36.618 97.3096 35.861 96.9803 35.1274C96.581 34.0634 96.0601 33.0538 95.4291 32.1206C94.5201 32.4755 93.5506 32.8873 93.0325 33.746C92.7668 34.2298 92.6151 34.7728 92.5902 35.3301C92.4659 36.9998 93.0446 38.6791 92.8538 40.3393C92.6572 41.9203 92.7073 43.5243 93.0022 45.0886Z" fill="white"/>
<path d="M101.725 80.9541C102.125 82.5383 101.546 84.2048 101.074 85.7731C100.362 88.1354 99.8768 90.5659 99.6253 93.0286C99.5945 93.6554 99.474 94.2737 99.2678 94.8631C99.0436 95.3922 98.6618 95.8389 98.4013 96.3427C97.6863 97.6671 97.7044 99.2829 97.859 100.797C97.962 101.795 98.1165 102.79 98.3074 103.772C98.5407 104.973 98.8285 106.228 98.4922 107.4C99.0557 107.27 99.4375 108.034 99.4011 108.633C99.3648 109.231 99.1799 109.9 99.4556 110.416C100.153 110.683 100.159 111.684 100.137 112.46C100.149 113.806 100.312 115.146 100.622 116.452C101.676 121.754 102.795 127.041 103.979 132.313C106.539 133.143 109.53 134.008 111.972 132.858C112.426 132.645 112.881 132.306 112.984 131.793C113.01 131.517 112.977 131.237 112.887 130.976L111.729 126.572C111.448 125.507 111.166 124.408 111.314 123.315C111.426 122.5 111.766 121.623 111.384 120.904C111.254 120.657 111.048 120.463 110.896 120.229C110.29 119.3 110.608 118.058 110.657 116.934C110.676 116.681 110.659 116.427 110.608 116.18C110.525 115.891 110.409 115.613 110.263 115.353C109.306 113.411 108.847 111.243 108.93 109.06C108.966 108.782 108.929 108.498 108.824 108.24C108.75 108.133 108.684 108.021 108.627 107.904C108.582 107.701 108.604 107.487 108.69 107.299C108.343 107.023 108.03 106.704 107.757 106.348C107.925 106.239 108.067 106.091 108.173 105.916C108.278 105.741 108.344 105.543 108.366 105.338C108.388 105.132 108.364 104.924 108.298 104.729C108.231 104.534 108.123 104.358 107.981 104.213C108.105 104.187 108.219 104.125 108.312 104.036C108.404 103.946 108.47 103.831 108.504 103.704C108.538 103.577 108.537 103.443 108.502 103.316C108.467 103.189 108.399 103.075 108.306 102.987C108.157 102.879 107.96 102.831 107.854 102.67C107.691 102.435 107.824 102.109 107.957 101.859L108.663 100.525C109.19 99.5332 109.309 98.3071 109.875 97.3566C110.687 95.972 111.217 94.429 111.741 92.9019L113.78 87.0183L115.153 88.2635C115.61 88.6287 115.993 89.0853 116.28 89.6068C116.475 90.1222 116.599 90.6643 116.647 91.2163C117.15 94.41 119.07 97.1791 119.782 100.325C119.94 101.026 120.046 101.761 120.431 102.359C120.569 102.543 120.692 102.738 120.8 102.942C120.901 103.254 120.953 103.58 120.955 103.909C121.019 104.552 121.214 105.174 121.527 105.732C121.841 106.289 122.266 106.77 122.773 107.14C123.449 107.625 124.288 107.958 124.654 108.725C124.728 108.962 124.83 109.189 124.957 109.399C125.285 109.811 125.991 109.859 126.13 110.375C126.209 110.664 126.063 111.009 126.218 111.262C126.306 111.38 126.422 111.47 126.554 111.525L128.526 112.555C130.732 113.708 131.859 116.357 133.486 118.287C134.048 118.915 134.546 119.603 134.971 120.34C135.674 121.655 135.998 123.305 137.186 124.142C137.505 124.315 137.795 124.541 138.046 124.81C138.419 125.323 138.282 126.043 138.316 126.689C138.349 127.335 138.822 128.105 139.409 127.909C139.203 128.692 139.203 129.518 139.409 130.301C141.99 130.162 144.451 129.12 146.396 127.342C146.972 126.816 147.526 126.144 147.532 125.346C147.541 125.208 147.512 125.07 147.447 124.95C147.331 124.794 147.177 124.672 147.002 124.598C145.157 123.552 144.602 121.129 143.669 119.161C142.854 117.425 141.648 115.929 140.64 114.317C138.446 110.847 136.949 106.649 133.632 104.359C132.901 103.855 132.053 103.408 131.686 102.575C131.483 102.109 131.459 101.577 131.299 101.095C131.138 100.614 130.753 100.145 130.263 100.145C130.535 99.4477 130.481 98.5986 130.499 97.8445C130.517 97.5098 130.481 97.1743 130.39 96.8528C130.264 96.5069 130.1 96.1774 129.902 95.8706C129.036 94.3381 128.604 92.5804 128.654 90.8013C128.678 89.8856 128.832 88.9415 128.569 88.067C128.436 87.6266 128.202 87.2242 128.042 86.7997C127.8 86.0304 127.672 85.2269 127.663 84.4171L127.481 81.3723C127.454 80.3583 127.328 79.3498 127.105 78.3624C126.5 75.9988 125.894 66.0978 123.818 64.9825C121.743 63.8673 118.177 71.4871 115.841 71.636C114.807 71.681 113.786 71.8871 112.811 72.2475C111.257 72.8558 109.954 73.9901 108.684 75.099L104.388 78.8725C103.479 79.6551 102.728 80.4028 101.725 80.9541Z" fill="#464353"/>
<path d="M81.1041 16.3137C82.0494 14.964 83.6734 14.248 85.2731 14.1878C86.8728 14.1276 88.4483 14.6535 89.8814 15.3981C90.3044 15.6496 90.7565 15.8434 91.2266 15.9747C91.9841 16.1363 92.8263 15.9209 93.5111 16.2916C94.42 16.7953 94.5957 18.0785 94.517 19.1431C94.4382 20.2076 94.2473 21.3894 94.7896 22.3114C94.982 22.5743 95.1571 22.8506 95.3138 23.1383C95.5471 23.6865 95.4107 24.3201 95.2714 24.8999C94.9169 24.5831 94.7169 24.1047 94.4018 23.7372C94.0867 23.3696 93.5383 23.1225 93.1475 23.3981C92.7566 23.6738 92.7627 24.1744 92.7415 24.6243C92.7203 25.0742 92.6112 25.6128 92.2052 25.7586C92.0357 25.7989 91.8584 25.7852 91.6964 25.7191C91.5343 25.653 91.395 25.5376 91.2963 25.3879C90.6025 24.5007 90.8812 23.0845 90.1935 22.191C89.8026 21.6841 89.1512 21.4369 88.7907 20.9047C88.5059 20.4864 88.4331 19.9542 88.1847 19.5043C87.9363 19.0544 87.3576 18.7249 86.9728 19.0353C86.8415 19.1665 86.7319 19.3197 86.6486 19.4884C86.4087 19.8478 86.0598 20.1121 85.6585 20.2386C85.2572 20.3651 84.8268 20.3463 84.4369 20.1855C84.1389 19.9942 83.8166 19.848 83.4794 19.7514C83.2588 19.7398 83.0394 19.7931 82.8461 19.905C82.6528 20.017 82.4934 20.1833 82.3857 20.3851C82.1683 20.7882 82.0633 21.247 82.0827 21.7094C82.0827 22.3431 82.1918 23.0179 81.8464 23.5249C81.7151 23.7157 81.5506 23.8791 81.3616 24.0065C80.8557 24.3455 80.1497 24.5736 79.6831 24.1871C79.525 24.033 79.4073 23.8391 79.3416 23.6238C79.2758 23.4085 79.264 23.1791 79.3074 22.9577C79.3983 22.5168 79.5177 22.0827 79.665 21.6587C79.9316 20.6765 79.5831 19.5708 79.874 18.6456C80.1787 17.8125 80.5927 17.0276 81.1041 16.3137Z" fill="#464353"/>
<path d="M84.9431 38.6664C84.8976 38.8973 84.9209 39.1372 85.0098 39.3539C85.0998 39.5014 85.2224 39.6242 85.3673 39.7119C86.3861 40.3757 87.545 40.7684 88.7425 40.8557C88.9054 40.8586 89.0653 40.9021 89.209 40.9824C89.4938 41.1789 89.512 41.6161 89.406 41.9646C89.2646 42.2934 89.1913 42.6497 89.1909 43.0101C89.2787 43.6723 90.0301 43.9606 90.6633 44.0589C91.5511 44.1761 92.5236 44.1159 93.2265 43.5361C93.7027 43.0819 94.0657 42.5131 94.2839 41.8791C96.023 37.7 96.632 33.0806 98.3923 28.9142C98.5257 28.6422 98.6148 28.3488 98.6559 28.0461C98.6745 27.8946 98.654 27.7406 98.5964 27.6002C98.5389 27.4598 98.4464 27.3381 98.3287 27.2477C98.0015 27.0354 97.4925 27.1558 97.2713 26.8231C97.1622 26.6552 97.1743 26.4271 97.0774 26.2497C96.8744 25.8726 96.3411 25.9328 95.9776 25.7142C95.6928 25.5558 95.4958 25.2295 95.1777 25.1661C95.0215 25.1569 94.8655 25.1859 94.7219 25.2508C94.5783 25.3157 94.4512 25.4147 94.3506 25.54C93.3174 26.5475 92.7751 27.9764 92.1994 29.3261C91.3204 31.395 90.2913 33.3906 89.1212 35.2953C89.2575 35.0735 88.4667 33.3943 88.1577 33.3214C87.6154 33.2073 86.9216 34.2022 86.6277 34.5729C85.7054 35.7422 85.1211 37.1621 84.9431 38.6664Z" fill="white"/>
<path opacity="0.1" d="M95.9502 26.0089C95.7326 26.0127 95.5186 26.0676 95.324 26.1696C95.1294 26.2717 94.9593 26.4181 94.8262 26.5982C94.502 27.0386 94.4384 27.6216 94.3566 28.1824C94.0808 29.9591 93.4745 31.662 92.572 33.1947" fill="black"/>
<path opacity="0.1" d="M97.4955 27.2731C97.1951 27.2801 96.9017 27.3688 96.644 27.5304C96.3863 27.6921 96.1734 27.9212 96.0261 28.1951C95.8255 28.6934 95.7008 29.2215 95.6565 29.7602C95.3967 30.9545 94.8957 32.0769 94.187 33.0521" fill="black"/>
<path d="M169.501 89.214V85.2789C169.5 82.3821 168.399 79.6043 166.44 77.5562C164.481 75.5082 161.825 74.3577 159.055 74.3577H10.4467C7.67658 74.3577 5.01989 75.5082 3.06084 77.5562C1.10179 79.6043 0.000803396 82.3821 0 85.2789V92.5344L169.501 89.214Z" fill="#33323D"/>
<path d="M51.7881 69.7445C51.7881 69.7445 51.3639 97.2647 56.0298 106.32C60.6957 115.375 62.6953 154.767 62.6953 154.767C62.6953 154.767 111.608 160.058 145.693 148.43C179.778 136.802 252.305 132.047 252.305 132.047L240.083 45.9028C240.083 45.9028 179.703 41.8537 145.354 58.9848C111.005 76.116 51.7881 69.7445 51.7881 69.7445Z" fill="#06D6A0"/>
<path opacity="0.1" d="M51.7881 69.7445C51.7881 69.7445 51.3639 97.2647 56.0298 106.32C60.6957 115.375 62.6953 154.767 62.6953 154.767C62.6953 154.767 111.608 160.058 145.693 148.43C179.778 136.802 252.305 132.047 252.305 132.047L240.083 45.9028C240.083 45.9028 179.703 41.8537 145.354 58.9848C111.005 76.116 51.7881 69.7445 51.7881 69.7445Z" fill="#1F65A6"/>
<path d="M62.6135 79.7976C62.6135 79.7976 61.0835 102.505 64.9222 109.761C68.761 117.016 68.9397 149.406 68.9397 149.406C68.9397 149.406 112.959 151.541 144.272 140.395C175.585 129.249 241.386 122.019 241.386 122.019L233.908 51.5709C233.908 51.5709 179.463 50.9848 147.687 66.6744C115.91 82.364 62.6135 79.7976 62.6135 79.7976Z" fill="#06D6A0"/>
<path opacity="0.1" d="M147.203 127.497C153.467 126.681 157.188 114.632 155.514 100.584C153.841 86.5368 147.407 75.8104 141.144 76.6262C134.881 77.442 131.16 89.4912 132.833 103.539C134.506 117.586 140.94 128.313 147.203 127.497Z" fill="black"/>
<path opacity="0.2" d="M206.98 3.93823C206.98 3.93823 148.32 19.4631 120.658 46.79C92.9961 74.1168 34.7637 87.0563 34.7637 87.0563C34.7637 87.0563 42.4351 113.382 49.5308 120.504C56.6266 127.627 70.0849 164.481 70.0849 164.481C70.0849 164.481 118.189 153.816 147.214 131.803C176.239 109.789 243.885 81.987 243.885 81.987L206.98 3.93823Z" fill="black"/>
<path d="M33.8821 83.1149C33.8821 83.1149 41.5505 109.444 48.6402 116.566C55.7298 123.689 69.1942 160.539 69.1942 160.539C69.1942 160.539 117.304 149.878 146.332 127.864C175.361 105.851 243.001 78.0582 243.001 78.0582L206.095 0C206.095 0 147.438 15.5248 119.776 42.8517C92.1145 70.1786 33.8821 83.1149 33.8821 83.1149Z" fill="#06D6A0" fill-opacity="0.5"/>
<path opacity="0.1" d="M33.8821 83.1149C33.8821 83.1149 41.5505 109.444 48.6402 116.566C55.7298 123.689 69.1942 160.539 69.1942 160.539C69.1942 160.539 117.304 149.878 146.332 127.864C175.361 105.851 243.001 78.0582 243.001 78.0582L206.095 0C206.095 0 147.438 15.5248 119.776 42.8517C92.1145 70.1786 33.8821 83.1149 33.8821 83.1149Z" fill="#06D6A0"/>
<path d="M47.1252 89.2107C47.1252 89.2107 52.3334 111.316 58.1173 116.988C63.9012 122.659 73.5692 153.423 73.5692 153.423C73.5692 153.423 116.089 141.327 142.621 120.669C169.153 100.012 229.664 72.0447 229.664 72.0447L201.877 7.37268C201.877 7.37268 149.889 24.2821 124.248 49.4133C98.6073 74.5445 47.1252 89.2107 47.1252 89.2107Z" fill="#06D6A0"/>
<path opacity="0.1" d="M141.64 107.463C147.362 104.677 147.368 92.015 141.653 79.1821C135.939 66.3492 126.668 58.2048 120.946 60.9911C115.224 63.7774 115.218 76.4392 120.933 89.2721C126.647 102.105 135.918 110.249 141.64 107.463Z" fill="black"/>
<path opacity="0.1" d="M173.513 93.0761V202.384C173.513 203.625 173.279 204.854 172.824 206.001C172.37 207.148 171.704 208.19 170.864 209.068C170.025 209.945 169.028 210.641 167.931 211.116C166.834 211.591 165.659 211.835 164.472 211.835H9.04385C6.64739 211.834 4.34935 210.838 2.65508 209.065C0.960813 207.293 0.00903307 204.89 0.0090332 202.384V82.0566C4.46282 83.7866 4.46281 83.7866 9.04385 83.6408H164.472C166.866 83.6408 169.163 84.6343 170.858 86.4032C172.553 88.1721 173.508 90.572 173.513 93.0761Z" fill="black"/>
<path d="M173.513 94.4671V203.775C173.512 206.282 172.559 208.685 170.864 210.458C169.168 212.23 166.869 213.226 164.472 213.226H9.04385C6.64739 213.225 4.34935 212.229 2.65508 210.456C0.960813 208.684 0.00903307 206.281 0.0090332 203.775V83.4445C4.46282 85.1712 4.46281 85.1712 9.04385 85.0286H164.472C166.867 85.0286 169.164 86.0225 170.859 87.7921C172.554 89.5617 173.509 91.9624 173.513 94.4671Z" fill="#504F60"/>
<path opacity="0.1" d="M173.07 134.879V169.835H140.652C136.258 169.773 132.064 167.905 128.978 164.634C125.892 161.363 124.161 156.952 124.161 152.357C124.161 147.762 125.892 143.352 128.978 140.081C132.064 136.81 136.258 134.941 140.652 134.879H173.07Z" fill="black"/>
<path d="M173.513 133.948V168.91H141.094C136.7 168.848 132.506 166.98 129.42 163.709C126.334 160.438 124.604 156.027 124.604 151.432C124.604 146.837 126.334 142.427 129.42 139.156C132.506 135.885 136.7 134.016 141.094 133.954L173.513 133.948Z" fill="#33323D"/>
<path opacity="0.1" d="M142.648 159.174C146.248 159.174 149.165 156.123 149.165 152.359C149.165 148.595 146.248 145.544 142.648 145.544C139.049 145.544 136.131 148.595 136.131 152.359C136.131 156.123 139.049 159.174 142.648 159.174Z" fill="black"/>
<path d="M143.091 158.249C146.69 158.249 149.608 155.198 149.608 151.434C149.608 147.67 146.69 144.619 143.091 144.619C139.492 144.619 136.574 147.67 136.574 151.434C136.574 155.198 139.492 158.249 143.091 158.249Z" fill="white"/>
<path d="M229.785 133.647C230.042 136.565 227.931 139.397 228.546 142.255C228.679 142.867 228.93 143.443 229.021 144.061C229.276 145.759 228.309 147.366 227.385 148.785L219.447 160.964C219.129 161.499 218.749 161.991 218.314 162.428C216.799 163.841 214.521 163.695 212.527 164.117C211.126 164.414 209.803 165.026 208.649 165.91C208.601 165.953 208.57 166.014 208.563 166.08C208.557 166.146 208.574 166.212 208.613 166.265C208.942 166.734 209.379 167.109 209.883 167.357C210.386 167.604 210.941 167.716 211.497 167.681C211.706 167.969 211.497 168.391 211.194 168.597C210.767 168.913 210.182 168.989 210.097 169.744C210.067 170.007 210.118 170.273 210.243 170.504C210.563 171.016 211.06 171.378 211.63 171.515C214.378 172.392 217.348 170.849 219.405 168.749C221.462 166.648 222.938 163.996 224.955 161.858C226.073 160.676 227.343 159.662 228.494 158.515C230.791 156.227 232.575 153.446 234.299 150.661C234.817 149.821 235.338 148.959 235.557 147.987C235.775 147.014 235.672 146.032 235.917 145.091C236.238 143.855 237.102 142.873 237.82 141.837C239.229 139.809 240.168 137.328 239.983 134.832C239.798 132.335 238.317 129.867 236.063 129.018C235.364 128.724 234.593 128.675 233.866 128.878C232.942 129.176 232.26 129.975 231.63 130.738L230.115 132.56C229.737 132.96 229.439 133.433 229.236 133.954C229.139 134.215 229.116 134.501 229.17 134.775C229.224 135.05 229.352 135.303 229.539 135.503" fill="#FBBEBE"/>
<path opacity="0.05" d="M229.785 133.647C230.042 136.565 227.931 139.397 228.546 142.255C228.679 142.867 228.93 143.443 229.021 144.061C229.276 145.759 228.309 147.366 227.385 148.785L219.447 160.964C219.129 161.499 218.749 161.991 218.314 162.428C216.799 163.841 214.521 163.695 212.527 164.117C211.126 164.414 209.803 165.026 208.649 165.91C208.601 165.953 208.57 166.014 208.563 166.08C208.557 166.146 208.574 166.212 208.613 166.265C208.942 166.734 209.379 167.109 209.883 167.357C210.386 167.604 210.941 167.716 211.497 167.681C211.706 167.969 211.497 168.391 211.194 168.597C210.767 168.913 210.182 168.989 210.097 169.744C210.067 170.007 210.118 170.273 210.243 170.504C210.563 171.016 211.06 171.378 211.63 171.515C214.378 172.392 217.348 170.849 219.405 168.749C221.462 166.648 222.938 163.996 224.955 161.858C226.073 160.676 227.343 159.662 228.494 158.515C230.791 156.227 232.575 153.446 234.299 150.661C234.817 149.821 235.338 148.959 235.557 147.987C235.775 147.014 235.672 146.032 235.917 145.091C236.238 143.855 237.102 142.873 237.82 141.837C239.229 139.809 240.168 137.328 239.983 134.832C239.798 132.335 238.317 129.867 236.063 129.018C235.364 128.724 234.593 128.675 233.866 128.878C232.942 129.176 232.26 129.975 231.63 130.738L230.115 132.56C229.737 132.96 229.439 133.433 229.236 133.954C229.139 134.215 229.116 134.501 229.17 134.775C229.224 135.05 229.352 135.303 229.539 135.503" fill="black"/>
<path d="M235.793 208.768C234.06 209.874 231.9 209.94 229.885 209.683C229.561 209.642 229.176 209.617 228.976 209.88C228.673 210.26 229.03 210.83 229.4 211.125C230.588 212.058 231.985 212.659 233.457 212.871C234.772 213.066 236.098 213.158 237.426 213.146C241.062 213.213 244.697 213.276 248.276 212.731C248.488 212.715 248.694 212.652 248.882 212.548C249.112 212.378 249.273 212.123 249.33 211.835C249.575 210.859 249.103 209.813 248.388 209.135C247.673 208.457 246.755 208.08 245.858 207.716L242.707 206.433C241.968 206.132 240.783 205.333 239.98 205.397C238.471 205.511 237.044 208.001 235.793 208.768Z" fill="#3F3D56"/>
<path opacity="0.05" d="M235.793 208.768C234.06 209.874 231.9 209.94 229.885 209.683C229.561 209.642 229.176 209.617 228.976 209.88C228.673 210.26 229.03 210.83 229.4 211.125C230.588 212.058 231.985 212.659 233.457 212.871C234.772 213.066 236.098 213.158 237.426 213.146C241.062 213.213 244.697 213.276 248.276 212.731C248.488 212.715 248.694 212.652 248.882 212.548C249.112 212.378 249.273 212.123 249.33 211.835C249.575 210.859 249.103 209.813 248.388 209.135C247.673 208.457 246.755 208.08 245.858 207.716L242.707 206.433C241.968 206.132 240.783 205.333 239.98 205.397C238.471 205.511 237.044 208.001 235.793 208.768Z" fill="black"/>
<path d="M238.002 165.026C236.69 166.851 235.332 168.958 235.656 171.217C235.832 172.433 236.484 173.507 236.962 174.632C237.611 176.159 237.95 177.801 238.283 179.435C238.774 181.824 239.268 184.22 239.568 186.647C239.91 189.387 238.301 197.317 238.153 200.077C238.117 200.742 238.041 201.462 237.599 201.94C237.426 202.13 237.196 202.282 237.117 202.529C237.071 202.768 237.108 203.015 237.223 203.226C237.962 204.969 239.474 206.268 241.162 207.009C242.849 207.751 246.918 209.031 248.757 209.097C249 209.125 249.245 209.092 249.472 208.999C249.717 208.843 249.91 208.612 250.024 208.337C251.342 205.701 250.075 196.329 250.093 193.354C250.112 190.873 250.672 188.408 250.569 185.93C250.484 183.941 249.963 181.995 249.79 180.012C249.487 176.761 250.057 173.495 250.63 170.282C251.066 167.817 251.505 165.352 252.066 162.919C252.408 161.433 252.805 159.934 253.581 158.645C254.187 157.621 255.038 156.766 255.744 155.793C257.703 153.107 258.574 149.722 258.168 146.371C258.125 146.054 253.623 147.565 253.226 147.746C251.607 148.463 250.117 149.465 248.821 150.708C247.779 151.747 246.958 153.135 246.046 154.298C244.755 155.943 243.48 157.6 242.222 159.269C240.786 161.176 239.379 163.095 238.002 165.026Z" fill="#464353"/>
<path opacity="0.05" d="M238.002 164.915C236.69 166.74 235.332 168.85 235.656 171.106C235.832 172.326 236.484 173.4 236.962 174.525C237.611 176.048 237.95 177.693 238.283 179.325C238.774 181.717 239.268 184.112 239.568 186.536C239.91 189.279 238.301 197.207 238.153 199.966C238.117 200.632 238.041 201.354 237.599 201.832C237.426 202.019 237.196 202.171 237.117 202.419C237.07 202.657 237.108 202.904 237.223 203.116C237.962 204.861 239.474 206.157 241.162 206.918C242.849 207.678 246.918 208.34 248.757 208.404C249 208.431 249.245 208.398 249.472 208.305C249.717 208.151 249.91 207.921 250.024 207.646C251.342 205.01 250.075 196.24 250.093 193.262C250.112 190.778 250.672 188.316 250.569 185.835C250.484 183.846 249.963 181.9 249.79 179.92C249.487 176.666 250.057 173.4 250.63 170.187C251.066 167.725 251.505 165.26 252.066 162.824C252.408 161.338 252.805 159.839 253.581 158.55C254.187 157.526 255.038 156.671 255.744 155.698C257.704 153.012 258.575 149.627 258.168 146.276C258.125 145.959 253.623 147.47 253.226 147.651C251.607 148.37 250.117 149.373 248.821 150.616C247.779 151.652 246.958 153.04 246.046 154.203C244.755 155.848 243.48 157.506 242.222 159.177C240.786 161.07 239.379 162.982 238.002 164.915Z" fill="black"/>
<path d="M230.027 116.82C230.706 117.953 231.597 118.931 232.646 119.697C233.695 120.462 234.881 120.999 236.132 121.274L235.578 123.381C234.62 127 233.545 130.827 230.872 133.336C231.175 132.11 230.788 130.802 230.127 129.737C229.467 128.672 228.539 127.836 227.631 127.009L223.398 123.175C223.276 123.071 223.173 122.945 223.095 122.802C222.99 122.531 222.99 122.229 223.095 121.959C223.634 120.203 225.173 119.107 226.428 117.922C227.057 117.31 227.619 116.625 228.103 115.882C228.948 114.621 229.473 115.888 230.027 116.82Z" fill="#FBBEBE"/>
<path d="M122.767 64.4567C122.176 65.0062 121.63 65.606 121.134 66.2499C120.634 66.9028 120.369 67.7174 120.382 68.5533C120.385 68.7957 120.459 69.0314 120.594 69.2282C120.664 69.3223 120.759 69.3916 120.868 69.4262C120.976 69.4609 121.093 69.4592 121.2 69.4214C121.322 69.3565 121.426 69.2606 121.503 69.1426C121.824 68.7402 122.163 68.3553 122.521 67.9893C122.652 67.8531 122.824 67.7105 123 67.7612C123.079 67.7905 123.15 67.8394 123.206 67.9038C123.41 68.0881 123.558 68.3302 123.633 68.6008C123.739 69.0856 123.47 69.5703 123.164 69.9505C122.858 70.3307 122.497 70.6951 122.373 71.1735C122.326 71.2999 122.326 71.44 122.373 71.5664C122.431 71.6578 122.513 71.7302 122.609 71.7755C123.043 72.0253 123.524 72.1724 124.018 72.2063C124.513 72.2403 125.008 72.1603 125.469 71.9719C126.075 71.7153 126.615 71.2749 127.239 71.0468C127.509 70.9695 127.771 70.8633 128.02 70.73C128.199 70.6057 128.352 70.4457 128.471 70.2592C128.59 70.0726 128.673 69.8633 128.714 69.6432C128.793 69.2035 128.808 68.7538 128.76 68.3093C128.684 66.5882 128.332 64.8926 127.717 63.2939C127.682 63.1908 127.621 63.0991 127.542 63.0277C127.451 62.9696 127.345 62.94 127.239 62.9422C126.463 62.8566 125.191 62.4416 124.442 62.7426C124.181 62.8926 123.955 63.1028 123.782 63.3572C123.642 63.5188 122.767 64.2444 122.767 64.4567Z" fill="#A1616A"/>
<path d="M122.521 63.7405C122.521 62.9674 121.613 61.1013 123.058 60.9777C123.058 60.1508 121.94 59.6375 122.149 58.7599C122.215 58.4684 122.452 58.2308 122.479 57.9329C122.57 57.087 121.11 56.6276 121.352 55.8165C121.443 55.4997 121.764 55.3159 121.834 55.0022C121.997 54.2703 120.746 53.944 120.722 53.1931C120.722 52.9396 120.858 52.702 120.846 52.4485C120.846 52.1317 120.582 51.8909 120.437 51.6153C120.058 50.9087 120.243 49.8157 119.552 49.4513C120.01 49.4925 120.158 48.7828 119.97 48.3487C119.783 47.9147 119.398 47.5376 119.395 47.056C119.417 46.8815 119.417 46.7046 119.395 46.5301C119.268 46.0675 118.543 46.0295 118.422 45.5796C118.407 45.4069 118.401 45.2334 118.407 45.06C118.359 44.702 118.007 44.4739 117.677 44.3725C117.334 44.3115 117.004 44.1882 116.701 44.0081C116.489 43.8402 116.244 43.5614 116.017 43.6913C115.932 43.7451 115.889 43.8465 115.826 43.9226C115.553 44.2552 115.032 44.1095 114.69 43.8655C113.678 43.1463 113.175 41.8568 112.959 40.599C112.744 39.3412 112.75 38.0421 112.481 36.797C112.399 36.4089 112.289 36.0277 112.154 35.6564C112.038 35.3395 111.669 34.8421 111.645 34.5221C111.59 33.7934 113.032 34.2908 113.581 34.3637C114.113 34.4181 114.639 34.5241 115.153 34.6805C115.701 34.8971 116.238 35.1435 116.762 35.4188C118.949 36.4295 121.591 36.553 123.349 38.2512C123.927 38.8089 124.415 39.5408 125.167 39.7942C125.511 39.8633 125.851 39.9554 126.185 40.0699C127.018 40.4786 127.148 41.635 127.602 42.4715C127.745 42.6924 127.87 42.9255 127.975 43.1685C128.063 43.455 128.104 43.7549 128.096 44.0556L128.16 46.2513C128.263 49.9297 128.366 53.6177 127.99 57.2739C127.869 58.4811 127.687 59.7231 128.03 60.8827C128.121 61.1995 128.248 61.4973 128.333 61.8173C128.408 62.1925 128.446 62.5746 128.448 62.9579L128.496 64.3805C128.513 64.4911 128.489 64.6043 128.43 64.6973C128.379 64.7403 128.32 64.7709 128.256 64.7868C128.193 64.8027 128.127 64.8035 128.063 64.7892C126.169 64.6118 124.255 63.4965 122.467 64.1714" fill="#464353"/>
<path d="M208.937 173.048C221.313 173.048 231.345 171.532 231.345 169.661C231.345 167.791 221.313 166.274 208.937 166.274C196.561 166.274 186.529 167.791 186.529 169.661C186.529 171.532 196.561 173.048 208.937 173.048Z" fill="#504F60"/>
<path d="M228.215 169.826C227.821 168.061 227.576 166.512 227.576 166.512C227.576 166.512 227.667 164.592 226.843 163.15V162.669V159.12C227.077 158.476 227.364 157.854 227.7 157.26C228.306 156.145 227.7 152.058 227.7 152.058C227.7 152.058 225.437 146.295 225.985 142.638C226.534 138.982 221.338 126.404 221.338 126.404C221.37 125.191 221.533 123.985 221.825 122.811C221.881 122.564 221.903 122.31 221.892 122.057C221.892 122.025 221.892 121.997 221.892 121.965C221.892 121.933 221.892 121.984 221.892 121.994C221.813 119.582 219.989 115.064 219.989 115.064L220.235 106.453C220.235 106.453 221.398 101.384 219.502 94.5558C218.838 92.1764 218.414 90.2722 218.144 88.8021C218.114 88.6374 218.084 88.4853 218.059 88.3237C221.965 87.69 224.949 87.1831 224.949 87.1831C224.949 87.1831 222.683 77.2694 221.153 75.5331C219.623 73.7969 218.399 68.3442 218.399 68.3442C218.399 68.3442 217.602 61.3453 218.89 59.2986C220.177 57.2518 220.359 53.7223 220.359 53.7223C220.359 53.7223 223.295 51.5045 223.665 50.5001C224.034 49.4957 224.643 47.2779 224.643 46.1025C224.643 44.927 224.277 43.8846 224.398 43.251C224.519 42.6173 223.54 40.2759 224.031 39.1606C224.158 38.818 224.224 38.454 224.225 38.0866C224.226 38.076 224.226 38.0654 224.225 38.0549C224.23 37.0789 224.143 36.1048 223.968 35.1464C223.118 34.3964 222.127 33.8426 221.059 33.521L220.995 33.2549L220.829 32.5578C220.736 32.4935 220.64 32.4343 220.541 32.3804V32.1269L220.514 31.1194L220.974 28.8572C221.883 24.9221 216.857 24.336 216.857 24.336C216.552 23.7324 216.045 23.2676 215.433 23.0306C214.424 22.6599 215.266 28.9491 215.736 29.3673C216.09 29.6841 217.187 31.6422 217.717 32.6117L217.802 32.7701C217.719 32.8481 217.642 32.9329 217.572 33.0236L217.763 34.3891L217.793 34.5982C217.46 35.0308 217.189 35.5123 216.99 36.0272C216.99 36.0272 217.899 37.079 217.726 38.245C217.554 39.4109 218.008 40.8905 218.029 40.9698C217.975 40.9032 217.329 40.1745 216.684 40.3519C216.039 40.5294 214.236 41.0965 214.236 41.0965C214.236 41.0965 212.891 41.3436 213.024 41.6541C213.157 41.9646 212.115 43.327 212.115 43.327L208.497 39.7404C208.461 39.6327 208.422 39.525 208.391 39.4236C208.244 38.9065 208.142 38.3762 208.088 37.8394C208.483 37.7415 208.87 37.6133 209.246 37.4561C209.626 37.3196 209.969 37.0892 210.246 36.7844C210.612 36.3313 210.682 35.7167 210.83 35.1527C211.115 34.0501 211.739 33.0711 212.173 32.0224C212.906 30.2503 213.143 28.2964 212.854 26.3891C212.799 25.8013 212.609 25.2362 212.3 24.7415C211.709 23.8924 210.637 23.5471 209.858 22.8691C209.079 22.191 208.576 21.155 207.667 20.6512C206.846 20.1918 205.849 20.2457 204.922 20.4041C203.112 20.7163 201.372 21.3782 199.793 22.3558C199.266 22.6726 198.684 23.0623 198.078 22.9451C197.557 22.8469 197.169 22.4128 196.842 21.9946C196.846 21.9773 196.851 21.9603 196.857 21.9439C196.842 21.9285 196.829 21.9115 196.818 21.8932C196.434 22.783 196.242 23.7498 196.254 24.7257C196.254 24.8778 196.254 25.0425 196.272 25.1788V25.3372C196.272 25.3815 196.272 25.4259 196.272 25.4671C196.272 25.5346 196.263 25.6018 196.245 25.6667C196.169 25.8605 196.053 26.0346 195.906 26.1768C195.794 26.3089 195.693 26.4498 195.603 26.5982C195.603 26.5475 195.633 26.4968 195.651 26.4429C195.42 26.7957 195.29 27.21 195.276 27.6374C195.259 27.9485 195.356 28.2546 195.548 28.4929C195.73 28.6771 195.927 28.8426 196.139 28.9871C196.067 29.4054 196.03 29.8295 196.03 30.2544C196.037 31.5143 196.354 32.7511 196.952 33.845C197.55 34.939 198.407 35.8532 199.441 36.4992C199.484 36.6038 199.523 36.7115 199.563 36.8161C200.026 38.0834 200.375 39.5725 200.22 40.9349C200.22 41.0331 200.193 41.1345 200.178 41.2327C200.163 41.3309 200.087 41.3373 200.047 41.3911C200.047 41.3911 194.07 41.4545 192.664 40.1238C191.258 38.7931 189.113 43.3777 189.113 43.3777C189.113 43.3777 186.971 43.8118 186.541 43.3777C186.11 42.9436 183.605 43.3175 183.605 43.3175C182.578 42.3628 181.242 41.853 179.869 41.8917C179.037 41.2305 178.119 40.697 177.142 40.3076L177.076 40.2822C176.645 40.1179 176.184 40.0573 175.727 40.1048C175.727 40.1048 172.788 37.5701 171.931 36.2014C171.074 34.8327 166.993 29.7792 166.974 29.757V29.5131L166.929 28.778C166.808 28.7979 166.685 28.8085 166.562 28.8097C166.541 28.7368 166.511 28.6513 166.48 28.5531C166.245 27.8361 165.956 27.14 165.614 26.4715C165.614 26.4715 165.614 25.5431 165.871 25.3087C166.129 25.0742 165.765 21.6683 165.765 21.6683C165.765 21.6683 163.117 15.1954 160.745 20.0271C160.745 20.0271 156.261 23.1542 160.024 26.7978C160.024 26.7978 161.539 27.5582 161.739 28.1602C161.878 28.5499 162.387 29.643 162.73 30.378L162.884 30.6948L162.842 30.7329L162.896 31.3412L162.92 31.5756C162.212 31.997 161.73 32.4152 161.848 32.7289C162.057 33.2657 162.2 33.8277 162.275 34.4018C162.275 34.4018 167.48 41.22 168.153 44.1317C168.153 44.1317 182.111 52.8067 186.701 53.4245L185.889 57.7493C185.771 58.9228 185.71 60.1019 185.707 61.2819C185.768 62.2103 185.156 66.4242 185.156 66.4242C185.156 66.4242 184.359 72.6214 183.687 73.4895C183.014 74.3577 183.135 78.0741 183.135 78.0741C182.976 79.8533 182.672 81.615 182.226 83.3399C181.554 85.694 182.041 88.6088 182.041 88.6088C182.041 88.6088 179.718 94.1851 185.286 90.4053C185.286 90.4053 188.013 90.2279 191.17 90.1138C191.17 90.2215 191.17 90.3324 191.17 90.4306C191.17 90.8552 191.17 91.3146 191.149 91.7962C191.107 94.9899 191.088 99.4002 191.228 102.721C191.473 108.607 193.188 120.257 193.188 120.257V126.122C193.077 126.672 193.022 127.233 193.024 127.795C192.988 129.858 193.514 131.89 194.539 133.653L194.969 137.556C194.969 137.556 195.975 140.129 195.994 141.675C195.99 141.8 195.975 141.924 195.951 142.046C195.912 142.243 195.896 142.444 195.903 142.645C195.845 144.419 196.866 148.665 196.866 148.665C196.866 148.665 196.927 152.939 197.539 153.189C198.063 153.401 196.839 155.651 196.475 156.297C196.466 156.258 196.458 156.217 196.454 156.177L196.378 156.303C196.252 156.649 196.187 157.017 196.187 157.387C196.153 157.679 196.198 157.975 196.319 158.241C196.439 158.507 196.629 158.731 196.866 158.889C198.03 159.633 198.654 160.251 197.666 160.498C197.303 160.557 196.943 160.637 196.587 160.736C196.587 160.688 196.551 160.638 196.536 160.593C196.397 160.65 196.28 160.756 196.207 160.892C196.133 161.028 196.107 161.187 196.133 161.341C196.142 161.844 196.266 162.337 196.493 162.78C197.472 165.073 198.151 165.948 198.151 165.948L198.62 165.894C198.551 166.082 198.459 166.259 198.348 166.423C198.169 166.689 197.932 166.906 197.657 167.057C197.4 167.217 197.114 167.32 196.818 167.358C196.486 167.369 196.16 167.453 195.861 167.605C195.563 167.757 195.298 167.973 195.085 168.239C194.479 169.066 194.091 170.19 195.297 171.179L199.675 172.763C199.675 172.763 207.207 173.786 206.807 172.018C206.407 170.25 206.165 168.704 206.165 168.704C206.197 167.625 205.989 166.552 205.559 165.571C205.48 165.411 205.391 165.256 205.292 165.108L205.559 165.08C205.559 165.08 206.11 161.173 206.843 160.432C207.013 160.261 207.052 160.115 207.013 160.026C207.089 159.814 206.895 159.69 206.649 159.618L206.595 159.773C206.355 159.718 206.11 159.689 205.865 159.687C205.865 159.687 205.619 157.644 206.416 156.899C206.48 156.814 206.527 156.716 206.554 156.612C206.58 156.507 206.586 156.398 206.571 156.291C206.577 156.01 206.548 155.73 206.486 155.458C206.478 155.475 206.469 155.492 206.458 155.508C206.059 153.652 204.701 150.702 204.701 150.702C204.701 150.702 204.641 148.845 205.131 148.101C205.622 147.356 205.068 138 205.068 138C205.068 138 205.253 133.479 204.701 131.372C204.15 129.265 205.374 126.784 205.374 126.784C205.374 126.784 205.374 126.737 205.374 126.651V126.619L205.304 125.906C205.302 125.921 205.302 125.936 205.304 125.951C205.18 124.753 204.947 122.583 204.774 121.582C204.528 120.156 204.837 113.344 204.837 113.344L205.937 110.429L207.898 115.451L209.979 122.142C209.979 122.142 211.009 123.556 211.033 124.994C211.033 125.064 211.033 125.133 211.033 125.203C211.017 125.351 211.009 125.501 211.009 125.65C210.972 126.495 211.194 127.331 211.642 128.036C211.642 128.036 212.194 131.204 213.051 131.999C213.909 132.794 213.909 134.353 213.909 134.353C213.909 134.353 214.948 138.941 215.424 139.739C215.836 140.417 215.857 142.274 215.854 142.854C215.854 142.958 215.854 143.019 215.854 143.019C215.854 143.019 215.999 144.66 215.993 146.035C215.993 146.206 215.993 146.371 215.993 146.526C215.995 146.514 215.995 146.503 215.993 146.491C215.993 146.867 215.95 147.241 215.866 147.606L215.848 147.67C215.848 147.591 215.848 147.515 215.869 147.438C215.656 148.372 215.554 149.33 215.566 150.29C215.539 151.938 215.778 153.889 216.732 155.042C218.387 157.026 219.426 156.779 219.426 156.779C219.426 156.779 218.632 159.256 217.65 159.754C217.613 159.772 217.579 159.796 217.547 159.824C217.547 159.773 217.529 159.725 217.523 159.678C217.414 159.801 217.33 159.947 217.278 160.107C217.226 160.266 217.206 160.435 217.22 160.603C217.151 161.693 217.808 163.454 218.432 164.275C218.664 164.512 218.948 164.686 219.259 164.782C219.21 164.818 219.158 164.851 219.105 164.88C218.996 164.943 218.883 164.999 218.768 165.048C218.609 165.119 218.441 165.165 218.269 165.184C217.936 165.194 217.61 165.277 217.311 165.429C217.012 165.581 216.748 165.798 216.535 166.065C215.93 166.889 215.542 168.014 216.748 169.002L221.126 170.586C221.126 170.586 228.609 171.591 228.215 169.826Z" fill="url(#paint0_linear_509_255)"/>
<path d="M199.46 172.753L195.218 171.169C194.048 170.181 194.421 169.056 195.012 168.229C195.215 167.965 195.47 167.75 195.76 167.598C196.049 167.446 196.367 167.361 196.69 167.348C196.978 167.31 197.254 167.207 197.499 167.047C197.768 166.894 197.999 166.677 198.172 166.414C198.481 165.9 198.648 165.307 198.654 164.7C198.654 164.7 203.308 163.274 204.58 164.7C204.807 164.958 204.997 165.249 205.144 165.564C205.566 166.549 205.773 167.619 205.75 168.698C205.75 168.698 205.986 170.244 206.371 172.012C206.755 173.78 199.46 172.753 199.46 172.753Z" fill="#2D293D"/>
<path d="M220.196 170.567L215.954 168.983C214.784 167.995 215.157 166.87 215.748 166.046C215.95 165.781 216.204 165.565 216.493 165.413C216.782 165.261 217.1 165.177 217.423 165.165C217.591 165.147 217.754 165.101 217.908 165.029C218.02 164.98 218.129 164.923 218.235 164.861C219.42 164.18 219.39 162.507 219.39 162.507C219.39 162.507 224.04 161.081 225.316 162.507C225.487 162.7 225.636 162.913 225.761 163.141C226.558 164.582 226.47 166.505 226.47 166.505C226.47 166.505 226.707 168.055 227.076 169.82C227.446 171.584 220.196 170.567 220.196 170.567Z" fill="#2D293D"/>
<path opacity="0.1" d="M204.583 164.696C204.81 164.954 205 165.246 205.147 165.561L198.178 166.407C198.488 165.894 198.655 165.3 198.66 164.693C198.66 164.693 203.311 163.271 204.583 164.696Z" fill="black"/>
<path opacity="0.1" d="M225.767 163.147V164.513C224.683 166.379 219.438 165.97 217.914 165.035C218.026 164.986 218.135 164.93 218.241 164.867C219.426 164.186 219.396 162.513 219.396 162.513C219.396 162.513 224.046 161.088 225.322 162.513C225.493 162.706 225.642 162.919 225.767 163.147Z" fill="black"/>
<path d="M226.594 157.26C226.27 157.855 225.993 158.477 225.767 159.12V164.015C224.58 166.059 218.42 165.378 217.587 164.262C216.754 163.147 215.884 160.245 216.82 159.741C217.756 159.237 218.538 156.766 218.538 156.766C218.538 156.766 217.529 157.013 215.93 155.03C214.33 153.046 214.805 148.649 215.102 147.597C215.399 146.545 215.102 143.012 215.102 143.012C215.102 143.012 215.163 140.531 214.69 139.727C214.218 138.922 213.209 134.341 213.209 134.341C213.209 134.341 213.209 132.791 212.379 131.986C211.548 131.182 211.015 128.02 211.015 128.02C210.53 127.23 210.321 126.288 210.424 125.355C210.6 123.806 209.415 122.133 209.415 122.133L207.401 115.438L205.504 110.42L204.438 113.331C204.438 113.331 204.135 120.146 204.38 121.569C204.625 122.992 204.986 126.775 204.986 126.775C204.986 126.775 203.801 129.252 204.335 131.359C204.868 133.466 204.674 137.994 204.674 137.994C204.674 137.994 205.207 147.347 204.731 148.091C204.256 148.836 204.316 150.695 204.316 150.695C204.316 150.695 206.74 156.145 205.977 156.89C205.213 157.634 205.443 159.678 205.443 159.678C205.443 159.678 207.101 159.678 206.392 160.422C205.683 161.167 205.147 165.07 205.147 165.07L197.981 165.948C197.981 165.948 197.327 165.083 196.378 162.78C195.43 160.476 196.554 160.736 197.508 160.486C198.463 160.235 197.86 159.621 196.733 158.876C195.606 158.132 196.26 156.459 196.26 156.459C196.26 156.459 197.978 153.423 197.384 153.176C196.79 152.929 196.733 148.652 196.733 148.652C196.733 148.652 195.548 143.583 195.845 142.208C196.142 140.832 194.897 137.563 194.897 137.563L194.482 133.659C193.214 131.444 192.751 128.826 193.179 126.283V120.264C193.179 120.264 191.519 108.617 191.282 102.73C191.131 98.9597 191.173 93.8144 191.222 90.6048C191.252 88.8052 191.282 87.6108 191.282 87.6108L216.878 84.8226C216.878 84.8226 216.854 86.0583 217.341 88.7989C217.605 90.269 218.014 92.1732 218.656 94.5526C220.492 101.368 219.368 106.447 219.368 106.447L219.129 115.061C219.129 115.061 221.38 120.821 220.907 122.805C220.622 123.982 220.461 125.189 220.429 126.404C220.429 126.404 225.464 138.982 224.931 142.638C224.398 146.295 226.588 152.058 226.588 152.058C226.588 152.058 227.188 156.145 226.594 157.26Z" fill="#464353"/>
<path opacity="0.05" d="M211.96 124.981L219.753 123.895C219.753 123.895 215.339 128.606 211.96 124.981Z" fill="black"/>
<path opacity="0.1" d="M218.626 115.932C218.626 115.932 218.893 118.816 217.205 119.899C217.205 119.899 220.226 119.405 218.626 115.932Z" fill="black"/>
<path opacity="0.1" d="M218.147 106.763C218.147 106.763 211.633 112.371 209.264 111.906C206.895 111.44 218.147 106.763 218.147 106.763Z" fill="black"/>
<path opacity="0.1" d="M202.302 127.611C202.302 127.611 197.354 128.786 197.205 130.865C197.057 132.943 202.302 127.611 202.302 127.611Z" fill="black"/>
<path opacity="0.05" d="M203.389 153.452C203.389 153.452 196.4 154.814 198.384 155.743C200.369 156.671 203.629 157.416 203.629 157.416C203.629 157.416 205.886 157.539 203.389 153.452Z" fill="black"/>
<g opacity="0.05">
<path opacity="0.05" d="M196.972 157.219C196.796 157.104 196.648 156.949 196.537 156.766C196.426 156.583 196.357 156.376 196.333 156.161L196.26 156.291C196.26 156.291 195.609 157.964 196.736 158.705C196.863 158.79 196.987 158.876 197.1 158.958C197.309 158.917 197.533 158.886 197.748 158.829C198.702 158.581 198.099 157.964 196.972 157.219Z" fill="black"/>
<path opacity="0.05" d="M205.977 156.722C206.171 156.538 206.165 156.063 206.046 155.454C205.743 155.933 205.656 156.68 205.65 157.248C205.723 157.051 205.834 156.872 205.977 156.722Z" fill="black"/>
<path opacity="0.05" d="M204.901 125.897C204.644 126.63 204.485 127.396 204.429 128.175C204.564 127.637 204.745 127.113 204.971 126.61L204.901 125.897Z" fill="black"/>
<path opacity="0.05" d="M220.911 122.646C220.957 122.424 220.978 122.196 220.974 121.968C220.886 122.431 220.826 122.858 220.78 123.235C220.82 123.042 220.862 122.858 220.911 122.646Z" fill="black"/>
<path opacity="0.05" d="M204.735 147.926C204.831 147.774 204.886 147.261 204.91 146.548C204.691 147.1 204.575 147.69 204.568 148.287C204.609 148.16 204.665 148.039 204.735 147.926Z" fill="black"/>
<path opacity="0.05" d="M206.189 159.611C205.821 160.854 205.549 162.125 205.374 163.413L198.208 164.278C198.208 164.278 197.554 163.413 196.606 161.11C196.529 160.932 196.461 160.75 196.403 160.565C195.972 160.771 195.797 161.236 196.366 162.596C197.315 164.89 197.972 165.764 197.972 165.764L205.138 164.896C205.138 164.896 205.671 160.992 206.38 160.248C206.743 159.89 206.519 159.703 206.189 159.611Z" fill="black"/>
<path opacity="0.05" d="M196.736 148.484C196.736 148.484 196.793 152.758 197.387 153.005C197.69 152.299 197.887 151.627 197.621 151.516C197.015 151.269 196.969 146.992 196.969 146.992C196.969 146.992 195.785 141.922 196.081 140.547C196.378 139.172 195.133 135.902 195.133 135.902L194.718 131.999C193.45 129.784 192.988 127.166 193.415 124.623V118.603C193.415 118.603 191.755 106.957 191.519 101.07C191.367 97.2995 191.41 92.1541 191.458 88.9446C191.458 88.3648 191.476 87.8515 191.485 87.4175L191.282 87.4397C191.282 87.4397 191.249 88.6309 191.222 90.4337C191.173 93.6433 191.128 98.7886 191.282 102.556C191.519 108.443 193.176 120.092 193.176 120.092V126.112C192.751 128.654 193.214 131.271 194.482 133.485L194.894 137.388C194.894 137.388 196.139 140.671 195.842 142.036C195.545 143.402 196.736 148.484 196.736 148.484Z" fill="black"/>
<path opacity="0.05" d="M217.829 162.608C217.247 161.727 216.859 160.722 216.693 159.665C215.963 160.356 216.802 163.036 217.602 164.101C218.429 165.216 224.592 165.897 225.782 163.85V162.672C224.168 164.329 218.611 163.663 217.829 162.608Z" fill="black"/>
<path opacity="0.05" d="M226.834 155.606C226.509 156.202 226.231 156.824 226.004 157.466V158.344C226.14 158.027 226.331 157.602 226.61 157.102C226.797 156.614 226.886 156.091 226.87 155.565C226.87 155.565 226.843 155.594 226.834 155.606Z" fill="black"/>
<path opacity="0.05" d="M218.193 156.585C218.418 156.108 218.613 155.616 218.778 155.112C218.778 155.112 217.769 155.359 216.169 153.376C215.005 151.934 214.939 149.21 215.105 147.429C214.802 148.484 214.333 152.882 215.933 154.865C216.978 156.161 217.769 156.503 218.193 156.585Z" fill="black"/>
<path opacity="0.05" d="M215.102 142.844C215.207 144.065 215.246 145.291 215.221 146.516C215.25 146.323 215.291 146.131 215.342 145.943C215.645 144.888 215.342 141.358 215.342 141.358C215.342 141.358 215.402 138.878 214.927 138.073C214.451 137.268 213.46 132.68 213.46 132.68C213.46 132.68 213.46 131.131 212.63 130.326C211.8 129.521 211.267 126.359 211.267 126.359C210.777 125.571 210.563 124.63 210.661 123.695C210.84 122.146 209.655 120.473 209.655 120.473L207.64 113.781L205.743 108.763L204.674 111.677C204.674 111.677 204.674 112.045 204.638 112.628L205.504 110.261L207.401 115.27L209.416 121.962C209.416 121.962 210.6 123.635 210.421 125.184C210.324 126.119 210.538 127.06 211.027 127.849C211.027 127.849 211.561 131.017 212.391 131.815C213.221 132.614 213.218 134.169 213.218 134.169C213.218 134.169 214.227 138.754 214.7 139.556C215.172 140.357 215.102 142.844 215.102 142.844Z" fill="black"/>
</g>
<path d="M220.077 28.8477L219.632 31.1099L219.659 32.1174L219.678 32.8588L217.205 33.125L216.929 32.5895C216.417 31.62 215.354 29.6493 215.012 29.3451C214.554 28.9459 213.739 22.6536 214.709 23.0275C215.305 23.2685 215.796 23.7325 216.084 24.3297C216.084 24.3297 220.953 24.9126 220.077 28.8477Z" fill="#FFCDD3"/>
<path opacity="0.1" d="M219.677 32.8588L217.205 33.1249L216.929 32.5895C217.262 32.1936 217.715 31.9305 218.213 31.845C218.71 31.7595 219.22 31.8569 219.656 32.1206L219.677 32.8588Z" fill="black"/>
<path d="M220.302 34.085L217.042 34.8739L216.972 34.367L216.787 33.0014C216.787 33.0014 218.078 31.2018 219.944 32.5515L220.108 33.2454L220.302 34.085Z" fill="white"/>
<path d="M167.493 29.0948L164.011 31.0465L163.708 30.3621C163.378 29.6366 162.884 28.5435 162.748 28.1443C162.542 27.5423 161.091 26.7819 161.091 26.7819C157.455 23.1415 161.787 20.0112 161.787 20.0112C164.084 15.1795 166.635 21.6524 166.635 21.6524C166.635 21.6524 166.993 25.0647 166.741 25.2928C166.49 25.5209 166.49 26.4556 166.49 26.4556C166.821 27.1252 167.102 27.8213 167.329 28.5372C167.435 28.8825 167.493 29.0948 167.493 29.0948Z" fill="#FFCDD3"/>
<path opacity="0.1" d="M167.492 29.0948L164.011 31.0465L163.708 30.3621C164.199 29.9312 165.941 28.4611 166.514 28.5213C166.787 28.557 167.063 28.5644 167.338 28.5435C167.435 28.8825 167.492 29.0948 167.492 29.0948Z" fill="black"/>
<path d="M167.847 30.1943L163.936 32.2093L163.857 31.3317L163.802 30.7234C163.802 30.7234 166.069 28.6925 166.738 28.7717C167.077 28.823 167.421 28.823 167.759 28.7717L167.805 29.5067L167.847 30.1943Z" fill="white"/>
<path d="M210.597 43.8751C210.597 43.8751 193.546 45.887 196.733 44.8034C198.951 44.0462 199.832 42.5856 200.017 40.9381C200.169 39.5662 199.829 38.0866 199.384 36.8192C198.983 35.6949 198.476 34.6155 197.869 33.597C197.869 33.597 210.897 26.1007 208.295 32.9158C207.893 33.9466 207.644 35.0352 207.555 36.1444C207.477 37.2466 207.591 38.3545 207.892 39.4141C208.383 41.1334 209.319 42.6773 210.597 43.8751Z" fill="#FFCDD3"/>
<path opacity="0.1" d="M208.286 32.9063C207.884 33.9371 207.635 35.0257 207.546 36.1348C206.319 37.2152 204.974 37.1424 203.244 37.1424C201.917 37.1424 200.444 37.4782 199.384 36.8097C198.983 35.6854 198.476 34.606 197.869 33.5875C197.869 33.5875 210.894 26.0912 208.286 32.9063Z" fill="black"/>
<path d="M203.014 37.6176C206.907 37.6176 210.064 34.3167 210.064 30.2449C210.064 26.1731 206.907 22.8722 203.014 22.8722C199.12 22.8722 195.963 26.1731 195.963 30.2449C195.963 34.3167 199.12 37.6176 203.014 37.6176Z" fill="#FFCDD3"/>
<path opacity="0.1" d="M210.597 43.8751C210.597 43.8751 193.546 45.887 196.733 44.8035C198.951 44.0462 199.832 42.5856 200.017 40.9381C200.866 39.9876 202.571 39.2811 203.653 38.9135C204.653 38.5619 205.733 38.5431 206.743 38.8597C207.141 38.9849 207.519 39.1684 207.867 39.4046C208.364 41.1303 209.309 42.6779 210.597 43.8751Z" fill="black"/>
<path opacity="0.1" d="M220.302 34.085L217.042 34.8739L216.972 34.367C217.321 33.8656 217.809 33.4889 218.37 33.2882C218.932 33.0875 219.538 33.0725 220.108 33.2454L220.302 34.085Z" fill="black"/>
<path opacity="0.1" d="M167.847 30.1942L163.935 32.2093L163.857 31.3317C165.124 30.6193 166.44 30.0082 167.795 29.5035L167.847 30.1942Z" fill="black"/>
<path opacity="0.1" d="M217.341 88.8052C210.733 89.9078 201.341 91.3145 199.851 90.8393C198.611 90.4464 194.66 90.4876 191.222 90.6112C191.252 88.8116 191.282 87.6171 191.282 87.6171L216.878 84.829C216.878 84.829 216.854 86.0646 217.341 88.8052Z" fill="black"/>
<path d="M223.928 87.183C223.928 87.183 202.184 91.0864 199.851 90.3513C197.518 89.6163 185.535 90.4115 185.535 90.4115C180.142 94.1914 182.393 88.6151 182.393 88.6151C182.393 88.6151 181.92 85.7034 182.572 83.3493C183.009 81.621 183.308 79.8575 183.466 78.0772C183.466 78.0772 183.347 74.3576 183.999 73.4895C184.65 72.6213 185.423 66.4272 185.423 66.4272C185.423 66.4272 186.014 62.2134 185.956 61.285C185.899 60.3567 186.132 57.7523 186.132 57.7523L186.904 53.4149C182.46 52.7971 168.95 44.1222 168.95 44.1222C168.299 41.2105 163.263 34.3954 163.263 34.3954C163.19 33.8223 163.05 33.2606 162.848 32.7225C162.493 31.7308 167.826 29.7474 167.826 29.7474C167.826 29.7474 171.795 34.8168 172.625 36.1918C173.455 37.5669 176.297 40.0952 176.297 40.0952C176.739 40.0477 177.185 40.1085 177.6 40.2726L177.67 40.2948C178.622 40.6858 179.515 41.2194 180.321 41.879C181.657 41.8459 182.953 42.3571 183.935 43.3047C183.935 43.3047 186.359 42.9309 186.78 43.3649C187.201 43.799 189.268 43.3649 189.268 43.3649C189.268 43.3649 191.34 38.7804 192.703 40.1111C194.067 41.4418 199.851 41.3784 199.851 41.3784C200.62 40.3075 202.496 39.5408 203.668 39.1606C204.669 38.8104 205.748 38.7915 206.759 39.1067C207.195 39.2428 207.605 39.4572 207.971 39.7404L211.488 43.3333C211.488 43.3333 212.494 41.9677 212.376 41.6604C212.258 41.353 213.561 41.1027 213.561 41.1027C213.561 41.1027 215.278 40.5451 215.93 40.3582C216.581 40.1713 217.178 40.9095 217.233 40.976C217.211 40.8968 216.766 39.3918 216.93 38.2512C217.093 37.1106 216.218 36.0334 216.218 36.0334C218.29 30.7043 222.971 35.1653 222.971 35.1653C222.971 35.1653 223.504 38.077 223.032 39.1922C222.559 40.3075 223.504 42.6616 223.386 43.2826C223.268 43.9036 223.625 44.9554 223.625 46.1341C223.625 47.3127 223.019 49.54 222.677 50.5317C222.335 51.5234 219.478 53.7539 219.478 53.7539C219.478 53.7539 219.299 57.2866 218.054 59.3302C216.808 61.3737 217.59 68.3631 217.59 68.3631C217.59 68.3631 218.775 73.8158 220.256 75.552C221.738 77.2883 223.928 87.183 223.928 87.183Z" fill="#3F3D56"/>
<path opacity="0.1" d="M192.231 46.4129C192.231 46.4129 191.579 44.3693 190.985 44.195C190.396 43.9683 189.822 43.6994 189.268 43.3903L189.649 42.6267C189.649 42.6267 191.873 43.2604 192.231 43.9479C192.588 44.6354 192.231 46.4129 192.231 46.4129Z" fill="black"/>
<path opacity="0.1" d="M180.321 41.8917C180.203 42.5254 174.928 43.0672 174.928 43.0672L177.594 40.2727L177.661 40.2981C178.617 40.6912 179.513 41.228 180.321 41.8917Z" fill="black"/>
<path d="M165.062 33.8822C165.324 33.8822 165.535 33.6609 165.535 33.3879C165.535 33.115 165.324 32.8937 165.062 32.8937C164.801 32.8937 164.59 33.115 164.59 33.3879C164.59 33.6609 164.801 33.8822 165.062 33.8822Z" fill="#575988"/>
<path d="M165.668 34.8739C165.93 34.8739 166.141 34.6526 166.141 34.3796C166.141 34.1067 165.93 33.8854 165.668 33.8854C165.407 33.8854 165.196 34.1067 165.196 34.3796C165.196 34.6526 165.407 34.8739 165.668 34.8739Z" fill="#575988"/>
<path d="M166.262 35.7896C166.523 35.7896 166.735 35.5683 166.735 35.2953C166.735 35.0223 166.523 34.801 166.262 34.801C166.001 34.801 165.79 35.0223 165.79 35.2953C165.79 35.5683 166.001 35.7896 166.262 35.7896Z" fill="#575988"/>
<path d="M166.884 36.7781C167.145 36.7781 167.356 36.5568 167.356 36.2838C167.356 36.0108 167.145 35.7896 166.884 35.7896C166.622 35.7896 166.411 36.0108 166.411 36.2838C166.411 36.5568 166.622 36.7781 166.884 36.7781Z" fill="#575988"/>
<path d="M222.734 36.6323C222.947 36.6323 223.119 36.4521 223.119 36.2299C223.119 36.0077 222.947 35.8275 222.734 35.8275C222.522 35.8275 222.35 36.0077 222.35 36.2299C222.35 36.4521 222.522 36.6323 222.734 36.6323Z" fill="#575988"/>
<path d="M222.795 37.5479C223.008 37.5479 223.18 37.3678 223.18 37.1455C223.18 36.9233 223.008 36.7432 222.795 36.7432C222.583 36.7432 222.41 36.9233 222.41 37.1455C222.41 37.3678 222.583 37.5479 222.795 37.5479Z" fill="#575988"/>
<path d="M222.847 38.4604C223.059 38.4604 223.231 38.2802 223.231 38.058C223.231 37.8358 223.059 37.6556 222.847 37.6556C222.634 37.6556 222.462 37.8358 222.462 38.058C222.462 38.2802 222.634 38.4604 222.847 38.4604Z" fill="#575988"/>
<path opacity="0.1" d="M192.252 63.2051C192.194 63.1322 205.553 80.7703 215.921 70.5778C215.93 70.5809 199.548 72.9033 192.252 63.2051Z" fill="black"/>
<path opacity="0.1" d="M184.586 72.3743C184.586 72.3743 192.579 72.6024 193.415 75.0072V77.5101C193.188 77.6422 192.932 77.7115 192.671 77.7115C192.411 77.7115 192.155 77.6422 191.928 77.5101C191.122 77.0539 186.289 74.4876 184.586 75.7232V72.3743Z" fill="black"/>
<path d="M184.735 72.3743C184.735 72.3743 192.379 72.5929 193.179 74.8868V77.2693C192.961 77.3958 192.716 77.4622 192.467 77.4622C192.218 77.4622 191.973 77.3958 191.755 77.2693C190.985 76.8384 186.365 74.3893 184.735 75.5679V72.3743Z" fill="#3F3D56"/>
<path opacity="0.1" d="M188.949 54.2261C189.766 56.2026 190.806 58.0695 192.049 59.7865C193.4 61.6844 195.037 63.3398 196.896 64.6879C196.896 64.6879 189.083 55.373 188.949 54.2261Z" fill="black"/>
<path opacity="0.1" d="M186.335 44.5151C186.335 44.5151 187.668 50.535 191.104 52.5785L186.335 44.5151Z" fill="black"/>
<path opacity="0.1" d="M184.289 45.1234C184.256 45.0126 183.105 49.8759 188.719 52.5785C188.719 52.5785 186.335 51.7326 184.289 45.1234Z" fill="black"/>
<path opacity="0.1" d="M219.189 41.0869C219.102 41.0869 221.959 42.9879 222.737 43.875C222.737 43.875 220.877 40.9602 219.189 41.0869Z" fill="black"/>
<path d="M201.108 36.9269C201.109 37.0877 201.142 37.2466 201.205 37.3934C201.267 37.5403 201.359 37.6719 201.473 37.78C201.586 37.8881 201.721 37.9703 201.866 38.0214C202.012 38.0725 202.167 38.0915 202.32 38.077C204.468 38.2164 206.707 38.3146 208.682 37.4433C209.053 37.305 209.386 37.0745 209.652 36.7716C210.003 36.3186 210.073 35.7039 210.215 35.1399C210.494 34.0374 211.088 33.0584 211.515 32.0096C212.238 30.2378 212.48 28.2921 212.215 26.3858C212.159 25.8015 211.975 25.2387 211.676 24.7415C211.106 23.8892 210.067 23.5438 209.313 22.8658C208.558 22.1878 208.073 21.1518 207.192 20.648C206.398 20.1854 205.425 20.2424 204.532 20.4009C202.774 20.713 201.089 21.3745 199.569 22.3494C199.057 22.6662 198.496 23.0559 197.908 22.9387C197.393 22.8373 197.018 22.3842 196.697 21.9597C196.283 22.9736 196.11 24.0766 196.191 25.1755C196.213 25.3368 196.208 25.5009 196.175 25.6603C196.101 25.853 195.989 26.0269 195.845 26.1704C195.315 26.8041 194.985 27.8338 195.509 28.4864C195.736 28.7684 196.088 28.9237 196.309 29.212C196.706 29.7284 196.572 30.4793 196.563 31.1383C196.541 31.3685 196.597 31.5993 196.721 31.791C196.835 31.9028 196.976 31.9816 197.128 32.0199C197.28 32.0582 197.44 32.0547 197.59 32.0096C197.89 31.9151 198.206 31.8839 198.517 31.9178C198.846 32.0295 199.13 32.2524 199.323 32.5514C200.302 33.8853 200.69 35.3364 201.108 36.9269Z" fill="#2D293D"/>
<g opacity="0.1">
<path opacity="0.1" d="M209.903 36.2108C209.637 36.5137 209.304 36.7442 208.934 36.8825C206.946 37.7475 204.71 37.6493 202.571 37.5162C202.342 37.5186 202.115 37.4655 201.908 37.361C201.581 37.1613 201.456 36.7431 201.356 36.3629C200.938 34.7788 200.554 33.3245 199.56 32.0033C199.368 31.6985 199.085 31.4698 198.754 31.3538C198.442 31.323 198.128 31.3542 197.827 31.4457C197.676 31.4911 197.517 31.4952 197.365 31.4574C197.213 31.4197 197.072 31.3414 196.957 31.2302C196.834 31.0385 196.778 30.8077 196.8 30.5776C196.8 29.9122 196.942 29.1676 196.545 28.6512C196.324 28.3629 195.973 28.2076 195.745 27.9225C195.597 27.7123 195.506 27.4639 195.482 27.204C195.458 26.944 195.502 26.682 195.609 26.446C195.23 27.0797 195.07 27.875 195.509 28.4199C195.736 28.7019 196.088 28.8571 196.309 29.1455C196.706 29.6651 196.572 30.4128 196.563 31.0718C196.54 31.3016 196.595 31.5326 196.718 31.7245C196.833 31.8368 196.974 31.9159 197.127 31.9542C197.28 31.9926 197.439 31.9887 197.59 31.9431C197.891 31.8486 198.206 31.8173 198.518 31.8512C198.846 31.9629 199.13 32.1859 199.324 32.4849C200.314 33.8061 200.702 35.2572 201.12 36.8477C201.169 37.2391 201.356 37.5972 201.644 37.852C201.852 37.9567 202.08 38.0088 202.311 38.0041C204.459 38.1435 206.698 38.2449 208.673 37.3705C209.044 37.2331 209.377 37.0024 209.643 36.6988C209.776 36.5203 209.879 36.3187 209.946 36.1031C209.949 36.1443 209.928 36.1792 209.903 36.2108Z" fill="black"/>
<path opacity="0.1" d="M196.191 25.4671C196.286 25.359 196.359 25.2318 196.406 25.0932C196.433 24.9329 196.433 24.7688 196.406 24.6084C196.347 23.7051 196.459 22.7985 196.736 21.9407L196.697 21.8932C196.282 22.9056 196.108 24.008 196.191 25.1059C196.2 25.2261 196.2 25.3469 196.191 25.4671Z" fill="black"/>
</g>
<path opacity="0.1" d="M199.851 41.3943C199.851 41.3943 208.658 42.6172 209.449 41.2327L199.851 41.3943Z" fill="black"/>
<path opacity="0.1" d="M216.972 37.5828C216.972 37.5828 221.868 37.5828 222.944 39.5091L216.972 37.5828Z" fill="black"/>
<path d="M244.364 208.72C242.912 210.078 241.025 210.815 239.077 210.786C238.58 210.786 237.893 210.884 237.89 211.404C237.902 211.556 237.952 211.703 238.035 211.828C238.65 212.9 239.621 213.698 240.762 214.068C241.822 214.404 242.955 214.347 244.061 214.287L247.288 214.113C247.894 214.078 248.5 214.046 249.106 213.967C249.712 213.888 250.372 213.758 251.006 213.65C252.561 213.419 254.135 213.343 255.705 213.422C256.123 213.438 256.614 213.422 256.862 213.105C257.111 212.788 256.983 212.183 256.889 211.708C256.695 210.729 256.889 209.702 256.711 208.72C256.408 206.997 254.981 205.676 253.417 205.051C251.963 204.475 249.388 203.813 248.012 204.776C246.561 205.786 245.673 207.475 244.364 208.72Z" fill="#3F3D56"/>
<path d="M247.57 150.974C247.854 152.391 249.166 153.474 249.203 154.919C249.236 156.078 248.445 157.051 247.876 158.043C247.339 159.07 246.886 160.143 246.521 161.249C245.449 164.131 244.118 166.9 242.546 169.519C241.789 170.786 240.941 172.139 241.113 173.612C241.234 174.301 241.466 174.963 241.801 175.57L244.073 180.291C244.571 181.233 244.961 182.234 245.234 183.272C245.431 184.169 245.449 185.097 245.564 186.01C245.921 188.906 247.221 191.82 246.452 194.628C246.385 194.868 246.149 195.16 245.964 194.992C246.715 196.459 247.318 197.935 247.261 199.599C247.23 200.47 246.976 201.379 247.282 202.19C247.412 202.529 247.639 202.846 247.636 203.211C247.636 203.451 247.53 203.676 247.506 203.911C247.442 204.579 248.03 205.137 248.639 205.349C249.248 205.562 249.912 205.546 250.527 205.739C251.708 206.11 252.554 207.174 253.557 207.912C254.585 208.654 255.798 209.066 257.047 209.101C257.225 209.12 257.405 209.083 257.562 208.993C257.651 208.911 257.722 208.811 257.771 208.699C257.821 208.586 257.846 208.464 257.847 208.34C257.902 207.748 257.816 207.152 257.599 206.602C257.381 206.053 257.038 205.568 256.598 205.191C256.406 205.065 256.247 204.891 256.135 204.684C256.078 204.501 256.064 204.307 256.092 204.117C256.275 201.52 256.231 198.911 255.959 196.323C255.837 195.502 255.797 194.671 255.841 193.842C255.905 193.151 256.105 192.467 256.032 191.779C255.959 191.092 255.623 190.464 255.426 189.802C255.074 188.624 255.171 187.356 255.123 186.124C255.062 183.982 254.593 181.878 254.126 179.787C253.941 178.967 253.738 178.108 253.184 177.5C252.711 176.983 251.948 176.489 252.126 175.801C252.225 175.548 252.373 175.318 252.56 175.127C252.779 174.839 252.94 174.507 253.033 174.152C253.126 173.797 253.148 173.425 253.099 173.061C253.298 173.114 253.509 173.093 253.695 173.002C253.882 172.91 254.032 172.754 254.12 172.56C257.81 170.738 260.786 167.095 262.113 163.055C262.191 162.755 262.311 162.469 262.47 162.206C262.812 161.705 263.406 161.49 263.934 161.214C265.588 160.343 266.73 158.711 267.778 157.115C268.384 156.189 268.99 155.233 269.263 154.143C269.406 153.438 269.474 152.718 269.466 151.998L269.56 148.275C269.58 148.03 269.558 147.783 269.493 147.546C269.403 147.325 269.273 147.125 269.108 146.957C268.101 145.843 266.777 145.096 265.333 144.828C264.364 144.647 263.373 144.682 262.391 144.596C260.489 144.432 258.61 143.814 256.707 143.963C253.717 144.194 251.054 146.361 249.645 149.13C249.151 150.106 248.63 150.955 247.57 150.974Z" fill="#464353"/>
<path d="M230.966 126.768C231.007 127.343 230.932 127.92 230.748 128.463C230.515 128.983 229.93 129.388 229.418 129.176C229.573 128.812 229.164 128.397 228.782 128.441C228.594 128.486 228.42 128.579 228.273 128.71C228.127 128.841 228.014 129.008 227.943 129.195C227.69 129.727 227.605 130.33 227.7 130.916C227.822 131.644 228.224 132.344 228.118 133.076C228.034 133.685 227.606 134.29 227.834 134.854C227.981 135.111 228.166 135.343 228.382 135.541C228.681 135.927 228.828 136.418 228.791 136.913C228.755 137.408 228.538 137.87 228.185 138.203L233.917 138.323C233.708 139.324 234.139 140.348 234.629 141.238C236.004 143.686 237.902 145.767 240.175 147.319C242.448 148.871 245.034 149.851 247.73 150.182C247.584 150.271 247.459 150.393 247.364 150.539C247.269 150.684 247.206 150.85 247.179 151.025C247.153 151.199 247.164 151.377 247.212 151.547C247.259 151.716 247.342 151.872 247.455 152.004C247.921 152.489 248.712 152.429 249.297 152.115C249.881 151.801 250.339 151.282 250.872 150.879C251.814 150.182 252.962 149.858 254.111 149.967C254.829 150.04 255.526 150.284 256.247 150.322C258.368 150.439 260.186 148.842 262.228 148.189C263.715 147.711 265.403 147.711 266.651 146.738C267.191 146.32 267.633 145.632 267.475 144.954C267.345 144.565 267.139 144.208 266.869 143.906C266.151 142.933 265.727 141.764 265.212 140.658C264.192 138.469 262.787 136.5 261.07 134.854C259.775 133.67 258.402 132.581 256.962 131.597C256.614 131.328 256.243 131.094 255.853 130.897C255.35 130.665 254.793 130.554 254.338 130.263C253.666 129.819 253.278 129.037 252.76 128.406C251.624 127.019 249.878 126.382 248.479 125.292C247.539 124.56 246.709 123.597 245.588 123.245C245.043 123.071 244.464 123.058 243.919 122.887C242.68 122.494 241.777 121.344 240.562 120.878C239.601 120.511 238.541 120.606 237.532 120.476C236.395 120.329 235.308 119.897 234.366 119.215C234.062 118.956 233.722 118.749 233.357 118.6C231.821 118.112 231.697 121.103 231.539 122.139C231.336 123.679 230.966 125.209 230.966 126.768Z" fill="white"/>
<path d="M232.463 136.799C232.721 139.72 230.612 142.55 231.227 145.411C231.357 146.019 231.609 146.599 231.7 147.217C231.957 148.912 230.988 150.518 230.063 151.937L222.125 164.12C221.807 164.654 221.426 165.146 220.992 165.583C219.477 166.993 217.199 166.851 215.205 167.269C213.805 167.57 212.482 168.181 211.327 169.062C211.275 169.104 211.241 169.166 211.232 169.234C211.223 169.302 211.24 169.371 211.279 169.427C211.608 169.895 212.044 170.27 212.547 170.518C213.05 170.765 213.605 170.877 214.16 170.843C214.369 171.128 214.16 171.553 213.872 171.759C213.448 172.075 212.86 172.148 212.775 172.905C212.747 173.169 212.798 173.435 212.921 173.666C213.242 174.176 213.739 174.537 214.309 174.673C217.057 175.554 220.026 174.008 222.083 171.907C224.14 169.807 225.616 167.155 227.634 165.019C228.752 163.835 230.021 162.824 231.172 161.677C233.469 159.386 235.256 156.608 236.977 153.823C237.496 152.983 238.02 152.121 238.235 151.149C238.45 150.176 238.35 149.19 238.595 148.25C238.916 147.017 239.78 146.032 240.498 144.999C241.907 142.971 242.849 140.49 242.661 137.99C242.473 135.491 240.995 133.026 238.741 132.177C238.042 131.886 237.272 131.837 236.544 132.037C235.62 132.335 234.938 133.133 234.308 133.9L232.793 135.719C232.424 136.121 232.135 136.596 231.942 137.116C231.844 137.378 231.821 137.664 231.875 137.939C231.928 138.214 232.057 138.468 232.245 138.668" fill="#FBBEBE"/>
<path d="M236.487 124.817C235.444 124.88 234.296 124.988 233.56 125.767C233.251 126.125 233.001 126.534 232.821 126.977C232.106 128.501 231.409 130.095 231.357 131.793C231.315 133.149 231.691 134.477 231.888 135.817C232.051 136.932 231.636 138.07 231.557 139.198C232.851 138.783 234.56 138.219 235.732 137.518C236.532 137.04 237.305 136.495 238.177 136.191C239.423 135.757 241.51 136.508 242.695 137.11C242.758 136.242 242.134 134.727 242.201 133.856C242.21 133.489 242.272 133.126 242.386 132.779C242.563 132.411 242.773 132.062 243.013 131.736C243.464 130.969 243.671 130.073 243.605 129.176C243.54 128.278 243.204 127.425 242.646 126.74C241.595 125.504 239.95 125.041 238.38 124.839C237.392 124.719 236.396 124.683 235.402 124.731" fill="white"/>
<path d="M223.015 124.863C227.073 125.013 230.487 121.694 230.64 117.45C230.793 113.206 227.627 109.644 223.568 109.494C219.51 109.344 216.096 112.663 215.943 116.907C215.791 121.152 218.957 124.713 223.015 124.863Z" fill="#FBBEBE"/>
<path d="M213.89 109.096L213.776 107.646C214.924 108.005 216.063 107.014 216.843 105.974C217.623 104.934 218.356 103.703 219.501 103.298C220.892 102.81 222.315 103.719 223.6 104.489C225.037 105.395 226.628 106.003 228.286 106.279C228.552 106.298 228.814 106.352 229.066 106.441C229.908 106.789 230.274 107.925 230.361 108.946C230.449 109.967 230.377 111.045 230.765 111.966C231.043 112.664 231.588 113.195 231.908 113.885C232.751 115.736 231.784 118.189 232.667 120.007L230.393 117.662C230.185 117.449 229.89 117.222 229.645 117.388C229.452 117.52 229.426 117.82 229.342 118.058C229.089 118.752 228.24 118.93 227.642 118.629C227.043 118.328 226.62 117.707 226.179 117.139C225.184 115.815 223.983 114.639 222.55 114.038C221.922 113.765 221.245 113.636 220.565 113.658C219.885 113.679 219.216 113.852 218.604 114.165C217.481 114.773 216.622 116.257 215.272 116.261C213.423 116.266 212.783 112.641 211.981 111.188C212.302 110.953 212.534 110.608 212.637 110.213C212.74 109.818 212.707 109.398 212.543 109.027C212.669 108.978 213.871 108.873 213.89 109.096Z" fill="#2C2A36"/>
<defs>
<linearGradient id="paint0_linear_509_255" x1="193.367" y1="173.048" x2="193.367" y2="18.2243" gradientUnits="userSpaceOnUse">
<stop stop-color="#808080" stop-opacity="0.25"/>
<stop offset="0.54" stop-color="#808080" stop-opacity="0.12"/>
<stop offset="1" stop-color="#808080" stop-opacity="0.1"/>
</linearGradient>
</defs>
</svg>
