<svg width="268" height="179" viewBox="0 0 268 179" fill="none" xmlns="http://www.w3.org/2000/svg">
<path d="M212.326 141.253C212.326 142.809 203.544 147.346 193.114 147.346C182.683 147.346 174.556 142.809 174.556 141.253C174.556 139.696 183.01 140.198 193.451 140.198C203.892 140.198 212.326 139.694 212.326 141.253Z" fill="#504F60"/>
<path opacity="0.2" d="M212.326 141.253C212.326 142.809 203.544 147.346 193.114 147.346C182.683 147.346 174.556 142.809 174.556 141.253" fill="black"/>
<path d="M107.281 112.696C108.974 112.92 110.731 113.062 112.352 112.519C112.608 112.437 112.888 112.255 112.863 111.991C112.845 111.896 112.805 111.805 112.748 111.728C112.137 110.781 111.623 109.77 111.216 108.713C111.2 108.657 111.167 108.609 111.122 108.575C111.069 108.556 111.011 108.556 110.958 108.575C110.21 108.779 109.564 109.277 108.821 109.491C108.442 109.598 108.047 109.629 107.657 109.58C107.319 109.541 106.86 109.253 106.553 109.29C106.727 110.443 107.151 111.519 107.281 112.696Z" fill="white"/>
<path d="M139.298 109.776C140.414 108.984 141.571 108.153 142.23 106.932C142.277 106.859 142.304 106.774 142.309 106.687C142.298 106.601 142.265 106.519 142.214 106.449C141.587 105.419 140.779 104.518 139.832 103.793C139.338 104.154 138.892 104.579 138.504 105.059C138.223 105.365 137.447 105.851 137.439 106.317C137.439 106.581 137.736 106.887 137.874 107.109C138.06 107.394 138.236 107.684 138.405 107.979C138.502 108.124 139.388 109.718 139.298 109.776Z" fill="white"/>
<path d="M113.917 116.228C113.937 116.499 113.865 116.77 113.713 116.993C113.594 117.117 113.446 117.207 113.284 117.256C110.917 118.132 108.177 117.04 105.816 117.903C105.33 118.079 104.871 118.335 104.383 118.504C103.802 118.685 103.202 118.795 102.596 118.831C101.761 118.913 100.921 118.966 100.083 118.99C99.4468 119.036 98.8074 118.978 98.1885 118.818C97.8791 118.736 97.5898 118.588 97.3395 118.383C97.0892 118.178 96.8834 117.921 96.7357 117.628C96.6073 117.366 96.5817 117.063 96.6642 116.782C96.7012 116.685 96.7539 116.596 96.8199 116.518C96.98 116.332 97.1679 116.175 97.3766 116.051L98.2473 115.471C98.6556 115.172 99.0992 114.93 99.5674 114.748C99.9121 114.632 100.277 114.582 100.627 114.484C101.85 114.115 102.785 113.112 103.653 112.15L104.838 110.844C104.948 110.7 105.089 110.584 105.249 110.504C105.413 110.447 105.588 110.43 105.759 110.454C106.91 110.538 108.022 110.923 108.989 111.572C109.237 111.764 109.504 111.926 109.786 112.057C110.481 112.337 111.372 112.126 112.013 111.772C112.317 111.604 112.25 111.509 112.378 111.208C112.505 110.907 112.817 110.715 113.088 110.989C113.169 111.084 113.227 111.198 113.256 111.321C113.512 112.192 113.414 113.128 113.414 114.041C113.407 114.184 113.424 114.327 113.466 114.463C113.531 114.601 113.609 114.731 113.698 114.853C113.716 114.886 113.732 114.919 113.746 114.954C113.903 115.358 113.961 115.795 113.917 116.228V116.228Z" fill="#514E7F"/>
<path d="M113.917 116.228C113.937 116.499 113.865 116.77 113.713 116.993C113.594 117.117 113.446 117.207 113.284 117.256C110.917 118.132 108.177 117.04 105.816 117.903C105.33 118.079 104.871 118.335 104.383 118.504C103.802 118.685 103.202 118.795 102.596 118.831C101.761 118.913 100.921 118.966 100.083 118.99C99.4468 119.036 98.8074 118.978 98.1885 118.818C97.8791 118.736 97.5898 118.588 97.3395 118.383C97.0892 118.178 96.8834 117.921 96.7357 117.628C96.6073 117.366 96.5817 117.063 96.6642 116.782C96.7012 116.685 96.7539 116.596 96.8199 116.518C96.9578 116.816 97.0574 117.212 97.1442 117.354C97.2615 117.565 97.421 117.748 97.6121 117.89C97.8032 118.033 98.0215 118.131 98.2524 118.18C98.598 118.202 98.9445 118.156 99.2737 118.045C101.419 117.497 103.699 117.489 105.759 116.658C106.467 116.37 107.141 115.988 107.884 115.814C108.627 115.639 109.416 115.687 110.182 115.621C111.392 115.521 112.564 115.144 113.757 114.946C113.911 115.353 113.966 115.793 113.917 116.228V116.228Z" fill="#464353"/>
<path d="M144.719 109.615C144.607 110.543 144.037 111.343 143.412 112.02C142.786 112.698 142.079 113.308 141.581 114.088C140.968 115.057 140.692 116.257 139.896 117.074C139.59 117.372 139.246 117.625 138.874 117.826C138.458 118.08 138.017 118.29 137.559 118.451C136.37 118.844 135.088 118.755 133.844 118.66C133.44 118.656 133.041 118.576 132.665 118.425C132.493 118.335 132.329 118.231 132.174 118.114C131.863 117.915 131.6 117.644 131.408 117.322C131.314 117.147 131.288 116.942 131.334 116.747C131.405 116.533 131.527 116.341 131.689 116.188C131.969 115.888 132.269 115.608 132.588 115.352C133.025 115.061 133.419 114.705 133.757 114.297C133.965 113.974 134.118 113.617 134.209 113.242C134.39 112.584 134.501 111.907 134.539 111.224C134.537 110.77 134.583 110.317 134.674 109.873C134.863 109.177 135.363 108.554 135.307 107.834C135.285 107.731 135.294 107.623 135.333 107.526C135.392 107.449 135.475 107.396 135.568 107.375C135.958 107.215 136.369 107.116 136.788 107.082C136.998 107.067 137.209 107.101 137.405 107.18C137.601 107.26 137.778 107.383 137.922 107.541C138.096 107.758 138.211 108.069 138.466 108.153C138.592 108.189 138.725 108.194 138.854 108.169C139.482 108.103 140.146 108.021 140.641 107.602C140.87 107.39 141.054 107.131 141.182 106.842C141.309 106.553 141.377 106.239 141.382 105.922C141.382 105.682 141.277 105.431 141.637 105.394C141.908 105.357 142.122 105.658 142.26 105.843C142.758 106.531 143.269 107.251 143.455 108.09C143.528 108.061 143.605 108.046 143.682 108.045C143.842 108.044 143.999 108.082 144.141 108.157C144.283 108.232 144.405 108.341 144.497 108.475C144.7 108.815 144.779 109.22 144.719 109.615Z" fill="#514E7F"/>
<path d="M144.719 109.615C144.607 110.543 144.037 111.343 143.412 112.02C142.786 112.698 142.079 113.308 141.581 114.088C140.968 115.057 140.693 116.257 139.896 117.074C139.59 117.372 139.246 117.625 138.874 117.826C138.458 118.08 138.017 118.29 137.559 118.451C136.37 118.844 135.088 118.755 133.844 118.66C133.441 118.656 133.041 118.576 132.665 118.425C132.493 118.335 132.329 118.231 132.174 118.114C131.863 117.915 131.6 117.644 131.408 117.322C131.648 117.204 131.909 117.139 132.174 117.133C132.726 117.164 133.129 117.702 133.658 117.868C134.411 118.103 135.162 117.555 135.925 117.367C136.423 117.246 136.947 117.278 137.439 117.104C137.85 116.94 138.23 116.702 138.56 116.402C139.014 116.067 139.417 115.665 139.758 115.21C140.041 114.754 140.276 114.268 140.46 113.761C140.863 112.79 141.338 111.851 141.88 110.955C141.96 110.813 142.057 110.682 142.168 110.564C142.288 110.451 142.424 110.372 142.559 110.272C143.07 109.873 143.282 109.216 143.46 108.573C143.509 108.377 143.576 108.187 143.662 108.006C143.821 108.004 143.979 108.043 144.12 108.117C144.262 108.192 144.384 108.301 144.477 108.436C144.696 108.784 144.783 109.204 144.719 109.615V109.615Z" fill="#464353"/>
<path d="M91.1769 27.3727C91.8125 27.8647 92.3355 28.4951 92.709 29.2191C93.0664 29.9419 95.127 35.5499 95.007 36.365C95.6786 35.666 98.3264 35.5526 99.0057 34.8535C99.2891 34.5607 100.819 33.0994 101.048 32.7591C101.278 32.4188 102.984 31.704 103.17 31.3452C103.867 30.0553 98.2269 25.1675 98.9495 23.8934C98.9895 23.8348 99.0101 23.7645 99.0082 23.6929C98.9917 23.6328 98.959 23.5788 98.9137 23.5373C98.4516 23.0493 97.8387 22.7459 97.2821 22.3846C96.7255 22.0232 96.1892 21.5193 96.0386 20.8546C95.5078 21.107 95.0205 21.4474 94.5959 21.8623C93.5609 22.7785 92.5438 23.7131 91.5446 24.6663C91.1539 25.0408 90.3981 25.5394 90.2168 26.0749C90.0024 26.6499 90.8041 27.0588 91.1769 27.3727Z" fill="#A1616A"/>
<path d="M100.308 25.2967C99.4425 25.8975 98.6337 26.5811 97.8923 27.3384C97.1927 28.0532 96.5288 28.8815 96.3603 29.8813C96.2888 30.2743 96.299 30.6726 96.2403 31.0709C95.9849 32.7987 94.5397 34.0648 93.9014 35.6818C93.7164 36.1809 93.5804 36.6979 93.4954 37.225C93.316 38.2241 93.2178 39.2371 93.2017 40.2532C93.1864 41.2371 94.121 41.915 94.4631 42.833C94.8053 43.7509 94.8972 44.6953 95.0708 45.637C95.3977 47.4149 95.9977 49.1294 96.6029 50.8335C97.8617 54.4262 101.942 64.3576 103.201 67.9529C107.059 66.9532 117.329 64.6557 120.745 62.548C121.884 61.8464 112.842 53.9303 114.06 53.3842C114.13 53.3731 114.196 53.3453 114.254 53.3032C114.311 53.261 114.358 53.2056 114.392 53.1414C114.425 53.0772 114.443 53.0059 114.445 52.9331C114.447 52.8604 114.432 52.7882 114.403 52.7222C113.185 47.2197 109.375 42.6984 107.646 37.341C107.046 35.4814 105.969 33.8934 105.152 32.126C104.411 30.5249 104.015 28.7549 103.129 27.2329C102.962 26.9193 102.744 26.6381 102.483 26.402C102.262 26.2269 102.023 26.0774 101.771 25.9562C101.265 25.7029 100.796 25.5526 100.308 25.2967Z" fill="#514E7F"/>
<path d="M91.3811 26.7475C94.7163 26.7475 97.4199 23.9545 97.4199 20.5091C97.4199 17.0637 94.7163 14.2706 91.3811 14.2706C88.046 14.2706 85.3423 17.0637 85.3423 20.5091C85.3423 23.9545 88.046 26.7475 91.3811 26.7475Z" fill="#A1616A"/>
<path d="M97.5247 23.4397C97.8256 23.1529 98.2037 22.9672 98.6089 22.9069C99.0142 22.8466 99.4276 22.9147 99.7946 23.1021C100.203 23.321 100.561 23.7642 100.469 24.2284L103.464 24.2759C103.941 24.2624 104.417 24.3076 104.884 24.4104C105.353 24.516 105.772 24.7875 106.068 25.178C106.104 25.2281 106.145 25.2888 106.206 25.2967C106.256 25.2975 106.305 25.2808 106.344 25.2492C106.805 25.0105 107.324 24.9187 107.835 24.9855C109.454 25.0936 110.95 25.9298 112.219 26.9744C112.448 27.1369 112.626 27.3653 112.73 27.6312C112.835 27.982 112.71 28.4226 112.986 28.6731C112.986 31.5747 113.951 34.2864 114.594 37.1142C114.709 37.618 115.176 38.0638 115.501 38.4595C115.901 38.8981 116.228 39.4027 116.468 39.9525C117.015 41.4191 116.262 43.1442 116.793 44.6161C117.017 45.2387 117.451 45.7504 117.814 46.2912C118.292 46.9156 118.594 47.664 118.687 48.4542C118.71 48.8077 118.667 49.1638 118.687 49.5093C118.722 49.9846 118.807 50.4544 118.943 50.91C119.16 51.7611 119.389 52.6114 119.627 53.4608C120.015 54.8324 120.521 56.3123 121.71 57.0429C118.838 57.5468 115.81 58.04 113.072 57.0086C112.691 56.8741 112.328 56.6869 111.995 56.4521C111.007 55.724 110.529 54.479 110.103 53.3025C109.628 51.9836 109.145 50.6409 109.048 49.2376C109.049 48.7913 108.988 48.3471 108.867 47.9187C108.589 47.1537 107.846 46.6921 107.171 46.2674C106.41 45.8365 105.721 45.2826 105.129 44.6267C104.835 44.2963 104.61 43.9072 104.468 43.4835C104.325 43.0597 104.269 42.6103 104.301 42.163C104.352 41.7277 104.518 41.3083 104.534 40.8704C104.549 40.4326 104.36 39.9314 103.954 39.8153C101.863 39.1611 100.865 36.6024 100.4 34.3972C100.199 33.2575 100.109 32.0999 100.132 30.9417L100.104 28.6916C99.815 28.4204 99.5829 28.0913 99.4213 27.7244C99.2598 27.3576 99.1722 26.9606 99.1639 26.5576C99.1917 26.3225 99.1874 26.0845 99.1512 25.8507C99.0502 25.5648 98.8858 25.3073 98.6711 25.0989C98.2094 24.6094 97.8228 24.0499 97.5247 23.4397V23.4397Z" fill="#464353"/>
<path d="M91.0926 30.5724C91.0237 31.2687 91.1769 31.9836 91.0262 32.6668C90.9675 32.9306 90.8653 33.1944 90.7913 33.4397C90.5649 34.423 90.6629 35.4563 91.0696 36.3756C91.4758 37.2858 91.9622 38.1556 92.5225 38.9738C92.712 39.2532 92.8681 39.5552 92.9872 39.8733C93.0838 40.2074 93.1438 40.5516 93.166 40.8994C93.3138 42.2963 93.551 43.6815 93.8758 45.0461C94.1618 46.2278 97.4097 56.3307 98.1655 57.2671C98.3027 57.4744 98.5106 57.6205 98.7477 57.676C98.9186 57.6826 99.0886 57.6464 99.2431 57.5705L100.775 56.9638C100.905 56.9226 101.026 56.8544 101.13 56.7633C101.274 56.59 101.352 56.3689 101.35 56.1408C101.459 54.8535 98.2038 44.6794 97.7902 43.4634C96.539 39.7915 94.8742 36.2516 94.0597 32.4505C93.8324 31.3954 93.7124 29.7705 92.9642 28.929C92.6553 28.5808 92.76 28.7285 92.3897 28.9105C92.2026 28.9944 92.0217 29.0923 91.8484 29.2033C91.6317 29.359 91.4514 29.5627 91.3206 29.7995C91.1898 30.0364 91.1119 30.3004 91.0926 30.5724Z" fill="#464353"/>
<path d="M95.7424 37.5389C96.1535 39.7836 96.5774 42.0231 96.9987 44.2679L102.994 42.6457C103.043 41.9968 102.708 41.3953 102.483 40.7992C101.937 39.3827 101.924 37.8053 101.482 36.3492C101.148 35.2413 100.566 34.2231 100.252 33.1073C100.07 32.4584 99.9785 31.7884 99.7997 31.1316C99.608 30.4866 99.3725 29.8563 99.095 29.2455C98.7585 28.3597 98.3195 27.5192 97.7877 26.7422C97.0216 27.0377 96.2046 27.3806 95.7679 28.0955C95.544 28.4982 95.4162 28.9504 95.3951 29.4144C95.2904 30.8045 95.7781 32.2025 95.6173 33.5848C95.4516 34.9011 95.4939 36.2365 95.7424 37.5389V37.5389Z" fill="white"/>
<path d="M103.094 67.399C103.431 68.7179 102.943 70.1054 102.545 71.4111C101.945 73.3779 101.536 75.4014 101.324 77.4518C101.298 77.9736 101.197 78.4884 101.023 78.9791C100.834 79.4196 100.512 79.7915 100.293 80.2109C99.69 81.3135 99.7053 82.6588 99.8355 83.9197C99.9223 84.7506 100.053 85.5789 100.213 86.3966C100.41 87.3964 100.653 88.4409 100.369 89.4169C100.844 89.3088 101.166 89.9445 101.135 90.443C101.105 90.9416 100.949 91.4982 101.181 91.9281C101.768 92.1497 101.774 92.9833 101.756 93.6295C101.765 94.7501 101.903 95.8656 102.164 96.9532C103.053 101.367 103.996 105.769 104.993 110.158C107.151 110.849 109.671 111.569 111.729 110.612C112.112 110.435 112.495 110.153 112.582 109.726C112.605 109.495 112.577 109.263 112.5 109.045L111.525 105.378C111.288 104.492 111.05 103.577 111.175 102.667C111.27 101.989 111.556 101.258 111.234 100.659C111.124 100.454 110.95 100.293 110.823 100.097C110.312 99.3246 110.58 98.2906 110.621 97.3541C110.637 97.1439 110.623 96.9324 110.58 96.7263C110.51 96.4856 110.413 96.2545 110.289 96.0379C109.483 94.4211 109.096 92.6163 109.166 90.7991C109.196 90.5673 109.165 90.3311 109.076 90.1159C109.014 90.0271 108.959 89.9337 108.91 89.8363C108.872 89.667 108.891 89.4893 108.964 89.3325C108.671 89.1031 108.407 88.8373 108.177 88.5412C108.319 88.4502 108.439 88.3272 108.528 88.1814C108.617 88.0357 108.672 87.8709 108.69 87.6997C108.709 87.5284 108.689 87.3552 108.633 87.1929C108.577 87.0307 108.486 86.8838 108.366 86.7633C108.471 86.7416 108.567 86.6905 108.645 86.6158C108.722 86.541 108.778 86.4454 108.807 86.3396C108.835 86.2338 108.834 86.122 108.805 86.0166C108.775 85.9112 108.718 85.8163 108.64 85.7424C108.515 85.6527 108.349 85.6132 108.259 85.4787C108.121 85.2835 108.234 85.0118 108.346 84.8034L108.941 83.6928C109.385 82.8672 109.485 81.8464 109.962 81.055C110.647 79.9023 111.093 78.6177 111.535 77.3462L113.254 72.4478L114.41 73.4845C114.796 73.7885 115.118 74.1687 115.36 74.6029C115.525 75.032 115.629 75.4833 115.669 75.9429C116.093 78.6018 117.712 80.9073 118.312 83.5267C118.445 84.1096 118.534 84.7216 118.858 85.2201C118.974 85.3732 119.079 85.5355 119.17 85.7055C119.254 85.9648 119.298 86.2364 119.3 86.51C119.354 87.0458 119.518 87.5634 119.783 88.0277C120.047 88.4919 120.405 88.892 120.832 89.2006C121.402 89.6042 122.109 89.8812 122.418 90.5195C122.48 90.7172 122.565 90.906 122.673 91.0814C122.949 91.4243 123.544 91.4639 123.661 91.8938C123.728 92.1339 123.605 92.4214 123.735 92.6324C123.809 92.7301 123.907 92.8057 124.019 92.8514L125.681 93.7087C127.54 94.6688 128.49 96.874 129.861 98.4805C130.334 99.0037 130.754 99.5766 131.112 100.19C131.705 101.284 131.978 102.659 132.979 103.355C133.248 103.499 133.493 103.687 133.704 103.912C134.018 104.339 133.903 104.938 133.931 105.476C133.959 106.014 134.358 106.655 134.853 106.492C134.679 107.143 134.679 107.831 134.853 108.483C137.028 108.368 139.102 107.5 140.741 106.019C141.226 105.582 141.693 105.022 141.699 104.358C141.706 104.243 141.681 104.128 141.627 104.028C141.529 103.898 141.399 103.797 141.252 103.735C139.697 102.865 139.229 100.847 138.443 99.2085C137.756 97.763 136.74 96.5179 135.89 95.1753C134.041 92.2869 132.78 88.7918 129.984 86.8846C129.368 86.4652 128.653 86.0933 128.344 85.3995C128.173 85.0118 128.153 84.5686 128.017 84.1677C127.882 83.7667 127.558 83.3763 127.144 83.3763C127.374 82.796 127.328 82.089 127.343 81.4612C127.359 81.1826 127.328 80.9033 127.251 80.6356C127.145 80.3477 127.007 80.0733 126.84 79.8179C126.111 78.5419 125.746 77.0786 125.788 75.5974C125.809 74.835 125.939 74.049 125.717 73.3209C125.604 72.9543 125.408 72.6193 125.273 72.2658C125.069 71.6253 124.961 70.9563 124.953 70.2822L124.8 67.7472C124.777 66.903 124.671 66.0634 124.484 65.2413C123.973 63.2735 123.462 55.0303 121.713 54.1017C119.964 53.1732 116.959 59.5172 114.99 59.6412C114.119 59.6786 113.258 59.8502 112.437 60.1503C111.127 60.6567 110.029 61.6011 108.959 62.5243L105.338 65.666C104.572 66.3175 103.939 66.94 103.094 67.399Z" fill="#464353"/>
<path d="M85.7151 13.5821C86.5118 12.4584 87.8804 11.8623 89.2286 11.8122C90.5768 11.762 91.9046 12.1999 93.1124 12.8198C93.4688 13.0292 93.8499 13.1906 94.2461 13.2999C94.8844 13.4344 95.5943 13.2551 96.1713 13.5637C96.9374 13.9831 97.0855 15.0514 97.0191 15.9377C96.9527 16.824 96.7918 17.8079 97.2489 18.5755C97.411 18.7945 97.5586 19.0245 97.6906 19.264C97.8872 19.7204 97.7723 20.2479 97.6549 20.7306C97.3561 20.4669 97.1876 20.0685 96.922 19.7626C96.6565 19.4566 96.1943 19.2508 95.8649 19.4803C95.5355 19.7098 95.5406 20.1266 95.5228 20.5012C95.5049 20.8757 95.413 21.3242 95.0708 21.4455C94.9279 21.4791 94.7785 21.4676 94.642 21.4126C94.5054 21.3576 94.388 21.2615 94.3048 21.1369C93.7201 20.3983 93.955 19.2192 93.3754 18.4753C93.046 18.0533 92.497 17.8475 92.1931 17.4043C91.9531 17.0562 91.8918 16.613 91.6824 16.2384C91.4731 15.8639 90.9854 15.5895 90.6611 15.848C90.5504 15.9573 90.4581 16.0847 90.3879 16.2252C90.1856 16.5245 89.8917 16.7445 89.5534 16.8498C89.2152 16.9551 88.8525 16.9395 88.5239 16.8056C88.2728 16.6463 88.0011 16.5247 87.717 16.4442C87.531 16.4346 87.3461 16.4789 87.1833 16.5721C87.0204 16.6653 86.886 16.8038 86.7952 16.9717C86.612 17.3074 86.5235 17.6894 86.5399 18.0744C86.5399 18.6019 86.6318 19.1638 86.3407 19.5858C86.23 19.7447 86.0915 19.8807 85.9322 19.9868C85.5058 20.269 84.9108 20.4589 84.5176 20.1371C84.3843 20.0089 84.2852 19.8474 84.2297 19.6682C84.1743 19.4889 84.1644 19.298 84.201 19.1137C84.2775 18.7465 84.3782 18.3852 84.5023 18.0321C84.727 17.2144 84.4333 16.2938 84.6785 15.5236C84.9352 14.8299 85.2841 14.1765 85.7151 13.5821V13.5821Z" fill="#464353"/>
<path d="M88.9503 32.192C88.912 32.3842 88.9316 32.584 89.0065 32.7644C89.0824 32.8872 89.1857 32.9895 89.3078 33.0625C90.1665 33.6151 91.1431 33.942 92.1523 34.0147C92.2896 34.0172 92.4244 34.0533 92.5455 34.1202C92.7856 34.2838 92.8009 34.6478 92.7115 34.938C92.5923 35.2117 92.5306 35.5083 92.5302 35.8084C92.6043 36.3597 93.2375 36.5998 93.7712 36.6816C94.5193 36.7792 95.339 36.729 95.9313 36.2463C96.3326 35.8682 96.6385 35.3947 96.8225 34.8667C98.2881 31.3875 98.8014 27.5415 100.285 24.0728C100.397 23.8463 100.472 23.602 100.507 23.35C100.523 23.2239 100.505 23.0957 100.457 22.9788C100.408 22.8619 100.331 22.7605 100.231 22.6853C99.9555 22.5085 99.5265 22.6088 99.3401 22.3318C99.2482 22.192 99.2584 22.0021 99.1767 21.8544C99.0056 21.5405 98.5562 21.5906 98.2498 21.4086C98.0098 21.2767 97.8438 21.005 97.5757 20.9522C97.4441 20.9445 97.3126 20.9687 97.1916 21.0227C97.0706 21.0767 96.9634 21.1592 96.8787 21.2635C96.0079 22.1023 95.5509 23.292 95.0657 24.4157C94.3249 26.1382 93.4577 27.7996 92.4715 29.3853C92.5864 29.2007 91.9199 27.8026 91.6595 27.742C91.2024 27.647 90.6177 28.4753 90.37 28.7839C89.5928 29.7574 89.1003 30.9396 88.9503 32.192V32.192Z" fill="white"/>
<path opacity="0.1" d="M98.2269 21.6539C98.0435 21.6571 97.8631 21.7028 97.6991 21.7877C97.5351 21.8727 97.3917 21.9946 97.2796 22.1445C97.0063 22.5112 96.9527 22.9965 96.8838 23.4634C96.6514 24.9426 96.1404 26.3604 95.3798 27.6365" fill="black"/>
<path opacity="0.1" d="M99.529 22.7064C99.2759 22.7122 99.0285 22.786 98.8114 22.9206C98.5942 23.0552 98.4148 23.2459 98.2906 23.474C98.1216 23.8889 98.0165 24.3286 97.9791 24.7771C97.7602 25.7714 97.338 26.7058 96.7407 27.5177" fill="black"/>
<path d="M160.213 74.2758V70.9996C160.213 68.5879 159.285 66.2751 157.634 64.57C155.983 62.8649 153.744 61.907 151.409 61.907H26.1673C23.8327 61.907 21.5938 62.8649 19.9427 64.57C18.2917 66.2751 17.3638 68.5879 17.3632 70.9996V77.0402L160.213 74.2758Z" fill="#33323D"/>
<path d="M61.0085 58.0664C61.0085 58.0664 60.651 80.9785 64.5832 88.5174C68.5155 96.0563 70.2007 128.852 70.2007 128.852C70.2007 128.852 111.423 133.258 140.149 123.577C168.874 113.896 229.998 109.937 229.998 109.937L219.697 38.2168C219.697 38.2168 168.811 34.8456 139.863 49.1084C110.915 63.3711 61.0085 58.0664 61.0085 58.0664Z" fill="#76C3FC"/>
<path opacity="0.1" d="M61.0085 58.0664C61.0085 58.0664 60.651 80.9785 64.5832 88.5174C68.5155 96.0563 70.2007 128.852 70.2007 128.852C70.2007 128.852 111.423 133.258 140.149 123.577C168.874 113.896 229.998 109.937 229.998 109.937L219.697 38.2168C219.697 38.2168 168.811 34.8456 139.863 49.1083C110.915 63.3711 61.0085 58.0664 61.0085 58.0664Z" fill="#1F65A6"/>
<path d="M70.1318 66.4362C70.1318 66.4362 68.8423 85.3415 72.0774 91.3821C75.3126 97.4227 75.4633 124.389 75.4633 124.389C75.4633 124.389 112.562 126.167 138.951 116.887C165.34 107.607 220.795 101.588 220.795 101.588L214.493 42.9358C214.493 42.9358 168.609 42.4478 141.829 55.5103C115.049 68.5728 70.1318 66.4362 70.1318 66.4362Z" fill="#76C3FC"/>
<path opacity="0.1" d="M141.421 106.149C146.7 105.469 149.836 95.4377 148.426 83.7424C147.015 72.047 141.593 63.1166 136.315 63.7958C131.036 64.475 127.9 74.5066 129.31 86.202C130.721 97.8974 136.143 106.828 141.421 106.149Z" fill="black"/>
<path opacity="0.2" d="M191.799 3.27881C191.799 3.27881 142.362 16.2041 119.05 38.9554C95.7373 61.7066 46.6609 72.4794 46.6609 72.4794C46.6609 72.4794 53.1261 94.3971 59.1062 100.327C65.0862 106.257 76.4285 136.94 76.4285 136.94C76.4285 136.94 116.969 128.061 141.43 109.733C165.892 91.4058 222.902 68.2589 222.902 68.2589L191.799 3.27881Z" fill="black"/>
<path d="M45.9178 69.198C45.9178 69.198 52.3805 91.1183 58.3555 97.0481C64.3304 102.978 75.6777 133.658 75.6777 133.658C75.6777 133.658 116.223 124.782 140.687 106.455C165.152 88.127 222.156 64.988 222.156 64.988L191.053 0C191.053 0 141.619 12.9253 118.307 35.6765C94.9942 58.4278 45.9178 69.198 45.9178 69.198Z" fill="#76C3FC"/>
<path opacity="0.1" d="M45.9178 69.198C45.9178 69.198 52.3805 91.1183 58.3555 97.0481C64.3304 102.978 75.6777 133.658 75.6777 133.658C75.6777 133.658 116.223 124.782 140.687 106.455C165.152 88.127 222.156 64.988 222.156 64.988L191.053 0C191.053 0 141.619 12.9253 118.307 35.6765C94.9942 58.4278 45.9178 69.198 45.9178 69.198Z" fill="black"/>
<path d="M57.0787 74.2732C57.0787 74.2732 61.468 92.6772 66.3425 97.3989C71.2169 102.121 79.3648 127.734 79.3648 127.734C79.3648 127.734 115.199 117.663 137.559 100.464C159.92 83.2655 210.916 59.9814 210.916 59.9814L187.499 6.13821C187.499 6.13821 143.685 20.2163 122.076 41.1395C100.466 62.0627 57.0787 74.2732 57.0787 74.2732Z" fill="#76C3FC"/>
<path opacity="0.1" d="M136.733 89.4693C141.555 87.1495 141.56 76.6078 136.744 65.9237C131.928 55.2395 124.114 48.4589 119.292 50.7786C114.47 53.0984 114.465 63.6401 119.281 74.3242C124.097 85.0083 131.911 91.789 136.733 89.4693Z" fill="black"/>
<path opacity="0.1" d="M163.594 77.4913V168.496C163.594 169.53 163.397 170.553 163.014 171.508C162.631 172.463 162.07 173.33 161.362 174.061C160.655 174.792 159.815 175.371 158.89 175.767C157.966 176.162 156.975 176.365 155.975 176.365H24.985C22.9654 176.364 21.0287 175.535 19.6008 174.059C18.1729 172.584 17.3708 170.583 17.3708 168.496V68.317C21.1243 69.7572 21.1243 69.7572 24.985 69.6359H155.975C157.993 69.6359 159.928 70.463 161.357 71.9357C162.785 73.4084 163.59 75.4065 163.594 77.4913V77.4913Z" fill="black"/>
<path d="M163.594 78.6493V169.654C163.593 171.741 162.79 173.743 161.361 175.218C159.933 176.694 157.995 177.523 155.975 177.523H24.985C22.9654 177.522 21.0287 176.693 19.6008 175.217C18.1729 173.742 17.3708 171.741 17.3708 169.654V69.4723C21.1243 70.9099 21.1243 70.9099 24.985 70.7912H155.975C157.993 70.7912 159.929 71.6187 161.358 73.092C162.786 74.5653 163.591 76.564 163.594 78.6493V78.6493Z" fill="#504F60"/>
<path opacity="0.1" d="M163.221 112.295V141.398H135.9C132.197 141.346 128.662 139.791 126.061 137.067C123.461 134.344 122.002 130.672 122.002 126.846C122.002 123.021 123.461 119.349 126.061 116.625C128.662 113.902 132.197 112.346 135.9 112.295H163.221Z" fill="black"/>
<path d="M163.594 111.519V140.628H136.273C132.57 140.576 129.035 139.02 126.434 136.297C123.833 133.574 122.375 129.902 122.375 126.076C122.375 122.25 123.833 118.578 126.434 115.855C129.035 113.132 132.57 111.576 136.273 111.525L163.594 111.519Z" fill="#33323D"/>
<path opacity="0.1" d="M137.582 132.522C140.616 132.522 143.075 129.981 143.075 126.848C143.075 123.714 140.616 121.174 137.582 121.174C134.549 121.174 132.09 123.714 132.09 126.848C132.09 129.981 134.549 132.522 137.582 132.522Z" fill="black"/>
<path d="M137.955 131.751C140.989 131.751 143.448 129.211 143.448 126.077C143.448 122.944 140.989 120.403 137.955 120.403C134.922 120.403 132.463 122.944 132.463 126.077C132.463 129.211 134.922 131.751 137.955 131.751Z" fill="white"/>
<path d="M211.018 111.269C211.235 113.698 209.456 116.056 209.974 118.436C210.086 118.945 210.298 119.425 210.375 119.939C210.589 121.353 209.775 122.69 208.996 123.872L202.306 134.012C202.038 134.458 201.717 134.867 201.351 135.231C200.074 136.407 198.154 136.286 196.474 136.637C195.293 136.884 194.178 137.394 193.206 138.13C193.165 138.165 193.139 138.216 193.134 138.271C193.128 138.326 193.143 138.381 193.175 138.425C193.453 138.816 193.821 139.128 194.245 139.334C194.67 139.54 195.138 139.633 195.606 139.604C195.782 139.844 195.606 140.195 195.351 140.366C194.991 140.63 194.498 140.694 194.426 141.321C194.401 141.54 194.444 141.762 194.549 141.954C194.818 142.381 195.238 142.683 195.718 142.796C198.034 143.527 200.537 142.242 202.27 140.493C204.004 138.744 205.248 136.536 206.948 134.756C207.89 133.772 208.96 132.928 209.93 131.973C211.866 130.068 213.37 127.752 214.823 125.434C215.259 124.735 215.699 124.017 215.882 123.207C216.066 122.398 215.98 121.58 216.186 120.796C216.457 119.768 217.185 118.95 217.79 118.087C218.977 116.399 219.769 114.334 219.613 112.255C219.457 110.177 218.209 108.122 216.309 107.415C215.72 107.171 215.071 107.13 214.458 107.299C213.679 107.547 213.104 108.211 212.573 108.847L211.297 110.364C210.978 110.697 210.727 111.091 210.556 111.525C210.474 111.742 210.455 111.98 210.5 112.208C210.545 112.437 210.653 112.647 210.811 112.814" fill="#FBBEBE"/>
<path opacity="0.05" d="M211.018 111.269C211.235 113.698 209.456 116.056 209.974 118.436C210.086 118.945 210.298 119.425 210.375 119.939C210.589 121.353 209.775 122.69 208.996 123.872L202.306 134.012C202.038 134.458 201.717 134.867 201.351 135.231C200.074 136.407 198.154 136.286 196.474 136.637C195.293 136.884 194.178 137.394 193.206 138.13C193.165 138.165 193.139 138.216 193.134 138.271C193.128 138.326 193.143 138.381 193.175 138.425C193.453 138.816 193.821 139.128 194.245 139.334C194.67 139.54 195.138 139.633 195.606 139.604C195.782 139.844 195.606 140.195 195.351 140.366C194.991 140.63 194.498 140.694 194.426 141.321C194.401 141.54 194.444 141.762 194.549 141.954C194.818 142.381 195.238 142.683 195.718 142.796C198.034 143.527 200.537 142.242 202.27 140.493C204.004 138.744 205.248 136.536 206.948 134.756C207.89 133.772 208.96 132.928 209.93 131.973C211.866 130.068 213.37 127.752 214.823 125.434C215.259 124.735 215.699 124.017 215.882 123.207C216.066 122.398 215.98 121.58 216.186 120.796C216.457 119.768 217.185 118.95 217.79 118.087C218.977 116.399 219.769 114.334 219.613 112.255C219.457 110.177 218.209 108.122 216.309 107.415C215.72 107.171 215.071 107.13 214.458 107.299C213.679 107.547 213.104 108.211 212.573 108.847L211.297 110.364C210.978 110.697 210.727 111.091 210.556 111.525C210.474 111.742 210.455 111.98 210.5 112.208C210.545 112.437 210.653 112.647 210.811 112.814" fill="black"/>
<path d="M216.082 173.811C214.621 174.732 212.801 174.787 211.103 174.574C210.829 174.539 210.505 174.518 210.336 174.737C210.081 175.054 210.382 175.529 210.694 175.774C211.696 176.551 212.872 177.051 214.113 177.227C215.221 177.39 216.339 177.466 217.458 177.457C220.522 177.512 223.586 177.565 226.602 177.111C226.78 177.097 226.954 177.045 227.112 176.958C227.307 176.817 227.442 176.605 227.49 176.365C227.697 175.552 227.299 174.682 226.696 174.117C226.094 173.553 225.32 173.239 224.564 172.936L221.909 171.867C221.285 171.617 220.287 170.952 219.61 171.005C218.339 171.1 217.136 173.173 216.082 173.811Z" fill="#3F3D56"/>
<path opacity="0.05" d="M216.082 173.811C214.621 174.732 212.801 174.787 211.103 174.574C210.829 174.539 210.505 174.518 210.336 174.737C210.081 175.054 210.382 175.529 210.694 175.774C211.696 176.551 212.872 177.051 214.113 177.227C215.221 177.39 216.339 177.466 217.458 177.457C220.522 177.512 223.586 177.565 226.602 177.111C226.78 177.097 226.954 177.045 227.112 176.958C227.307 176.817 227.442 176.605 227.49 176.365C227.697 175.552 227.299 174.682 226.696 174.117C226.094 173.553 225.32 173.239 224.564 172.936L221.909 171.867C221.285 171.617 220.287 170.952 219.61 171.005C218.339 171.1 217.136 173.173 216.082 173.811Z" fill="black"/>
<path d="M217.943 137.394C216.837 138.913 215.694 140.667 215.967 142.548C216.115 143.561 216.664 144.455 217.067 145.391C217.614 146.663 217.9 148.029 218.181 149.39C218.594 151.379 219.01 153.374 219.263 155.394C219.552 157.676 218.196 164.278 218.071 166.576C218.04 167.13 217.976 167.729 217.603 168.127C217.458 168.285 217.264 168.412 217.197 168.618C217.159 168.816 217.19 169.022 217.287 169.198C217.91 170.649 219.184 171.73 220.606 172.347C222.029 172.965 225.458 174.03 227.008 174.086C227.212 174.109 227.419 174.081 227.61 174.004C227.816 173.874 227.979 173.682 228.075 173.453C229.186 171.258 228.118 163.455 228.134 160.978C228.149 158.913 228.621 156.861 228.535 154.798C228.463 153.141 228.024 151.522 227.878 149.871C227.623 147.164 228.103 144.445 228.586 141.77C228.953 139.718 229.324 137.665 229.796 135.639C230.084 134.402 230.419 133.155 231.073 132.081C231.583 131.229 232.301 130.517 232.896 129.707C234.547 127.47 235.281 124.653 234.939 121.862C234.903 121.598 231.108 122.857 230.774 123.007C229.409 123.604 228.153 124.438 227.061 125.473C226.183 126.339 225.491 127.494 224.722 128.462C223.635 129.832 222.56 131.211 221.5 132.601C220.29 134.189 219.104 135.786 217.943 137.394Z" fill="#464353"/>
<path opacity="0.05" d="M217.943 137.301C216.837 138.821 215.694 140.577 215.967 142.456C216.115 143.471 216.664 144.365 217.067 145.302C217.614 146.571 217.9 147.94 218.181 149.298C218.594 151.29 219.01 153.284 219.263 155.302C219.552 157.586 218.196 164.186 218.071 166.484C218.04 167.037 217.976 167.639 217.603 168.037C217.458 168.193 217.264 168.319 217.198 168.525C217.158 168.723 217.19 168.93 217.287 169.106C217.91 170.559 219.184 171.638 220.606 172.271C222.029 172.904 225.458 173.455 227.008 173.508C227.212 173.531 227.419 173.503 227.61 173.426C227.817 173.298 227.979 173.106 228.075 172.878C229.186 170.683 228.118 163.381 228.134 160.902C228.149 158.834 228.621 156.784 228.535 154.719C228.463 153.062 228.024 151.443 227.878 149.794C227.623 147.085 228.103 144.365 228.586 141.691C228.953 139.641 229.324 137.589 229.796 135.56C230.085 134.323 230.419 133.076 231.073 132.002C231.583 131.15 232.301 130.438 232.896 129.628C234.548 127.392 235.281 124.574 234.939 121.783C234.903 121.519 231.108 122.777 230.774 122.928C229.409 123.527 228.154 124.362 227.061 125.397C226.183 126.259 225.491 127.415 224.722 128.383C223.635 129.753 222.56 131.133 221.5 132.524C220.29 134.1 219.104 135.692 217.943 137.301Z" fill="black"/>
<path d="M211.223 97.2591C211.795 98.2026 212.546 99.0172 213.43 99.6545C214.314 100.292 215.313 100.738 216.368 100.968L215.9 102.722C215.093 105.734 214.187 108.921 211.935 111.01C212.19 109.989 211.863 108.9 211.307 108.014C210.75 107.127 209.969 106.431 209.203 105.742L205.636 102.551C205.533 102.464 205.446 102.359 205.38 102.239C205.292 102.014 205.292 101.763 205.38 101.538C205.835 100.076 207.132 99.1637 208.189 98.1771C208.72 97.667 209.193 97.0972 209.601 96.4784C210.314 95.4285 210.755 96.4836 211.223 97.2591Z" fill="#FBBEBE"/>
<path d="M120.827 53.6639C120.329 54.1214 119.869 54.6208 119.451 55.1569C119.03 55.7004 118.806 56.3787 118.818 57.0746C118.82 57.2764 118.882 57.4726 118.996 57.6364C119.055 57.7148 119.135 57.7725 119.227 57.8013C119.318 57.8302 119.416 57.8288 119.507 57.7973C119.61 57.7433 119.697 57.6635 119.762 57.5652C120.032 57.2302 120.319 56.9097 120.62 56.605C120.73 56.4916 120.876 56.3729 121.024 56.4151C121.09 56.4395 121.15 56.4802 121.197 56.5338C121.369 56.6872 121.494 56.8888 121.557 57.1141C121.647 57.5177 121.419 57.9213 121.162 58.2379C120.904 58.5544 120.6 58.8577 120.495 59.2561C120.455 59.3612 120.455 59.4779 120.495 59.5831C120.544 59.6592 120.613 59.7195 120.694 59.7572C121.06 59.9652 121.465 60.0877 121.882 60.1159C122.298 60.1442 122.716 60.0776 123.105 59.9208C123.615 59.7071 124.07 59.3405 124.596 59.1505C124.824 59.0862 125.044 58.9978 125.255 58.8868C125.405 58.7833 125.534 58.6501 125.635 58.4948C125.735 58.3395 125.805 58.1652 125.839 57.982C125.906 57.6159 125.919 57.2415 125.878 56.8715C125.814 55.4385 125.517 54.0268 124.999 52.6958C124.969 52.6099 124.918 52.5336 124.851 52.4742C124.774 52.4258 124.686 52.4011 124.596 52.403C123.942 52.3318 122.87 51.9862 122.239 52.2368C122.018 52.3617 121.828 52.5367 121.682 52.7485C121.565 52.8831 120.827 53.4871 120.827 53.6639Z" fill="#A1616A"/>
<path d="M120.62 53.0677C120.62 52.4241 119.854 50.8704 121.072 50.7675C121.072 50.0791 120.13 49.6517 120.306 48.9211C120.362 48.6784 120.561 48.4805 120.584 48.2326C120.661 47.5283 119.43 47.1458 119.635 46.4705C119.711 46.2067 119.982 46.0537 120.041 45.7926C120.178 45.1833 119.124 44.9116 119.103 44.2864C119.103 44.0754 119.218 43.8775 119.208 43.6665C119.208 43.4027 118.986 43.2023 118.863 42.9728C118.544 42.3845 118.7 41.4745 118.118 41.1711C118.503 41.2054 118.629 40.6145 118.47 40.2532C118.312 39.8918 117.988 39.5779 117.985 39.1769C118.004 39.0316 118.004 38.8843 117.985 38.7391C117.878 38.3539 117.268 38.3223 117.165 37.9477C117.152 37.8039 117.148 37.6594 117.153 37.5151C117.112 37.217 116.816 37.0271 116.537 36.9427C116.248 36.892 115.97 36.7893 115.715 36.6393C115.536 36.4995 115.33 36.2674 115.138 36.3756C115.067 36.4204 115.031 36.5048 114.977 36.5681C114.747 36.8451 114.308 36.7238 114.02 36.5206C113.167 35.9219 112.743 34.8483 112.562 33.8011C112.38 32.7538 112.385 31.6723 112.158 30.6357C112.089 30.3126 111.997 29.9952 111.882 29.686C111.785 29.4223 111.474 29.0081 111.453 28.7417C111.408 28.135 112.623 28.5491 113.085 28.6098C113.534 28.6551 113.977 28.7434 114.41 28.8736C114.872 29.0539 115.325 29.2591 115.766 29.4882C117.61 30.3297 119.836 30.4326 121.317 31.8464C121.805 32.3107 122.216 32.92 122.849 33.131C123.14 33.1886 123.426 33.2652 123.707 33.3605C124.409 33.7008 124.519 34.6636 124.902 35.36C125.023 35.5439 125.128 35.738 125.216 35.9403C125.29 36.1789 125.325 36.4285 125.318 36.6789L125.372 38.5069C125.459 41.5694 125.546 44.6399 125.229 47.6839C125.127 48.6889 124.974 49.723 125.262 50.6884C125.339 50.9522 125.446 51.2001 125.518 51.4665C125.581 51.7789 125.613 52.0971 125.615 52.4162L125.656 53.6005C125.67 53.6926 125.65 53.7869 125.599 53.8643C125.557 53.9001 125.507 53.9256 125.453 53.9388C125.4 53.9521 125.344 53.9528 125.29 53.9408C123.695 53.7931 122.081 52.8646 120.574 53.4264" fill="#464353"/>
<path d="M193.448 144.073C203.878 144.073 212.333 142.81 212.333 141.253C212.333 139.695 203.878 138.433 193.448 138.433C183.018 138.433 174.563 139.695 174.563 141.253C174.563 142.81 183.018 144.073 193.448 144.073Z" fill="#504F60"/>
<path d="M209.696 141.39C209.364 139.921 209.157 138.631 209.157 138.631C209.157 138.631 209.233 137.032 208.539 135.832V135.431V132.477C208.737 131.94 208.978 131.422 209.262 130.928C209.772 130 209.262 126.597 209.262 126.597C209.262 126.597 207.354 121.799 207.816 118.755C208.278 115.711 203.899 105.239 203.899 105.239C203.926 104.229 204.064 103.225 204.31 102.247C204.357 102.042 204.376 101.83 204.367 101.619C204.367 101.593 204.367 101.569 204.367 101.543C204.367 101.517 204.367 101.559 204.367 101.567C204.3 99.5593 202.763 95.7978 202.763 95.7978L202.97 88.6282C202.97 88.6282 203.95 84.4077 202.352 78.7232C201.793 76.7422 201.435 75.1569 201.208 73.9329C201.183 73.7957 201.157 73.6691 201.137 73.5346C204.428 73.007 206.943 72.585 206.943 72.585C206.943 72.585 205.033 64.3312 203.744 62.8857C202.454 61.4402 201.423 56.9005 201.423 56.9005C201.423 56.9005 200.751 51.0735 201.836 49.3695C202.921 47.6655 203.075 44.7269 203.075 44.7269C203.075 44.7269 205.549 42.8804 205.86 42.0443C206.172 41.2081 206.685 39.3616 206.685 38.383C206.685 37.4043 206.376 36.5365 206.478 36.0089C206.58 35.4814 205.756 33.532 206.169 32.6035C206.276 32.3183 206.332 32.0152 206.333 31.7093C206.334 31.7005 206.334 31.6917 206.333 31.6829C206.333 31.6829 206.333 31.6829 206.333 31.6829C206.337 30.8704 206.264 30.0594 206.116 29.2614C205.4 28.637 204.565 28.1759 203.664 27.9082L203.611 27.6866L203.47 27.1063C203.392 27.0527 203.311 27.0034 203.228 26.9585V26.7475L203.205 25.9087L203.593 24.0253C204.359 20.7491 200.123 20.2611 200.123 20.2611C199.866 19.7586 199.439 19.3716 198.923 19.1743C198.073 18.8657 198.782 24.1018 199.178 24.45C199.477 24.7138 200.401 26.3439 200.848 27.1511L200.92 27.283C200.85 27.348 200.785 27.4185 200.725 27.494L200.886 28.6309L200.912 28.805C200.631 29.1652 200.403 29.566 200.235 29.9947C200.235 29.9947 201.001 30.8704 200.856 31.8412C200.71 32.8119 201.093 34.0437 201.111 34.1097C201.065 34.0543 200.521 33.4476 199.977 33.5953C199.433 33.743 197.914 34.2152 197.914 34.2152C197.914 34.2152 196.78 34.4209 196.893 34.6795C197.005 34.938 196.127 36.0722 196.127 36.0722L193.078 33.0862C193.047 32.9965 193.014 32.9068 192.989 32.8224C192.864 32.3919 192.779 31.9504 192.733 31.5035C193.066 31.4219 193.392 31.3153 193.709 31.1843C194.029 31.0707 194.318 30.8789 194.551 30.6251C194.86 30.2479 194.919 29.7362 195.044 29.2666C195.284 28.3487 195.81 27.5336 196.175 26.6605C196.794 25.1851 196.993 23.5584 196.75 21.9704C196.703 21.4811 196.543 21.0106 196.283 20.5988C195.785 19.8918 194.881 19.6043 194.225 19.0398C193.568 18.4753 193.144 17.6127 192.378 17.1933C191.686 16.8108 190.846 16.8557 190.065 16.9876C188.539 17.2475 187.073 17.7985 185.742 18.6125C185.298 18.8763 184.808 19.2007 184.297 19.1031C183.858 19.0213 183.531 18.66 183.255 18.3118C183.258 18.2974 183.262 18.2832 183.268 18.2696C183.255 18.2567 183.244 18.2426 183.235 18.2274C182.912 18.9682 182.749 19.7731 182.76 20.5856C182.76 20.7122 182.76 20.8494 182.775 20.9628V21.0947C182.775 21.1316 182.775 21.1685 182.775 21.2028C182.775 21.2591 182.767 21.315 182.752 21.369C182.688 21.5304 182.59 21.6753 182.466 21.7937C182.372 21.9037 182.287 22.021 182.211 22.1445C182.211 22.1023 182.236 22.0601 182.252 22.0153C182.057 22.309 181.947 22.6539 181.935 23.0097C181.921 23.2687 182.003 23.5236 182.165 23.7219C182.318 23.8753 182.484 24.0131 182.663 24.1334C182.602 24.4817 182.571 24.8347 182.571 25.1886C182.577 26.2375 182.844 27.2672 183.348 28.1779C183.852 29.0887 184.574 29.8499 185.446 30.3877C185.482 30.4748 185.515 30.5645 185.548 30.6515C185.939 31.7066 186.232 32.9464 186.102 34.0807C186.102 34.1624 186.079 34.2469 186.066 34.3286C186.054 34.4104 185.99 34.4157 185.957 34.4605C185.957 34.4605 180.919 34.5133 179.734 33.4054C178.549 32.2975 176.741 36.1144 176.741 36.1144C176.741 36.1144 174.936 36.4758 174.574 36.1144C174.211 35.7531 172.099 36.0643 172.099 36.0643C171.234 35.2695 170.108 34.845 168.951 34.8773C168.25 34.3268 167.476 33.8826 166.653 33.5584V33.5584L166.597 33.5373C166.234 33.4005 165.845 33.35 165.46 33.3896C165.46 33.3896 162.984 31.2793 162.261 30.1398C161.538 29.0002 158.099 24.7929 158.084 24.7744V24.5713L158.045 23.9593C157.943 23.9759 157.84 23.9847 157.736 23.9857C157.719 23.9251 157.693 23.8538 157.667 23.7721C157.469 23.1751 157.225 22.5956 156.937 22.039C156.937 22.039 156.937 21.2661 157.154 21.0709C157.371 20.8757 157.065 18.0401 157.065 18.0401C157.065 18.0401 154.833 12.651 152.834 16.6737C152.834 16.6737 149.055 19.2772 152.226 22.3107C152.226 22.3107 153.503 22.9438 153.671 23.445C153.789 23.7694 154.218 24.6795 154.506 25.2914L154.637 25.5552L154.601 25.5869L154.647 26.0933L154.667 26.2885C154.07 26.6394 153.664 26.9876 153.763 27.2487C153.939 27.6956 154.06 28.1635 154.123 28.6415C154.123 28.6415 158.51 34.3181 159.077 36.7422C159.077 36.7422 170.84 43.9646 174.709 44.479L174.025 48.0796C173.925 49.0566 173.874 50.0383 173.871 51.0208C173.922 51.7937 173.407 55.302 173.407 55.302C173.407 55.302 172.735 60.4615 172.168 61.1843C171.601 61.9071 171.704 65.0012 171.704 65.0012C171.57 66.4825 171.313 67.9492 170.938 69.3853C170.371 71.3452 170.782 73.772 170.782 73.772C170.782 73.772 168.823 78.4146 173.516 75.2676C173.516 75.2676 175.815 75.1199 178.475 75.025C178.475 75.1146 178.475 75.207 178.475 75.2887C178.475 75.6422 178.475 76.0247 178.457 76.4256C178.422 79.0846 178.406 82.7564 178.524 85.5209C178.73 90.4219 180.176 100.121 180.176 100.121V105.004C180.082 105.462 180.036 105.929 180.038 106.397C180.007 108.115 180.45 109.806 181.315 111.274L181.677 114.524C181.677 114.524 182.525 116.666 182.54 117.953C182.537 118.057 182.525 118.16 182.504 118.262C182.471 118.425 182.458 118.593 182.464 118.76C182.415 120.237 183.276 123.772 183.276 123.772C183.276 123.772 183.327 127.33 183.842 127.539C184.284 127.715 183.253 129.588 182.946 130.126C182.938 130.093 182.932 130.06 182.928 130.026L182.864 130.132C182.758 130.42 182.703 130.726 182.704 131.034C182.675 131.277 182.713 131.523 182.814 131.745C182.915 131.966 183.075 132.153 183.276 132.284C184.256 132.904 184.782 133.418 183.95 133.624C183.643 133.673 183.34 133.739 183.041 133.822C183.041 133.782 183.01 133.74 182.997 133.703C182.88 133.751 182.782 133.839 182.72 133.952C182.658 134.065 182.636 134.198 182.658 134.326C182.666 134.744 182.77 135.155 182.961 135.523C183.786 137.433 184.358 138.161 184.358 138.161L184.754 138.116C184.696 138.273 184.618 138.421 184.524 138.557C184.374 138.778 184.174 138.959 183.942 139.084C183.726 139.218 183.485 139.304 183.235 139.335C182.955 139.344 182.68 139.415 182.429 139.541C182.177 139.667 181.954 139.847 181.774 140.068C181.263 140.757 180.937 141.693 181.953 142.516L185.643 143.835C185.643 143.835 191.99 144.687 191.653 143.215C191.316 141.743 191.112 140.456 191.112 140.456C191.139 139.557 190.964 138.664 190.601 137.847C190.535 137.714 190.46 137.585 190.377 137.462L190.601 137.438C190.601 137.438 191.066 134.186 191.684 133.569C191.827 133.426 191.86 133.305 191.827 133.231C191.891 133.054 191.727 132.952 191.52 132.891L191.475 133.02C191.272 132.975 191.066 132.951 190.859 132.949C190.859 132.949 190.652 131.248 191.324 130.628C191.378 130.557 191.418 130.476 191.44 130.388C191.462 130.301 191.467 130.21 191.454 130.121C191.459 129.888 191.435 129.655 191.383 129.427C191.376 129.442 191.368 129.456 191.36 129.47C191.023 127.924 189.879 125.468 189.879 125.468C189.879 125.468 189.828 123.922 190.241 123.302C190.655 122.683 190.188 114.893 190.188 114.893C190.188 114.893 190.343 111.129 189.879 109.375C189.414 107.621 190.445 105.555 190.445 105.555C190.445 105.555 190.445 105.516 190.445 105.444V105.418L190.387 104.824C190.385 104.837 190.385 104.849 190.387 104.861C190.282 103.864 190.085 102.057 189.94 101.224C189.733 100.037 189.994 94.3655 189.994 94.3655L190.92 91.9387L192.572 96.1196L194.327 101.691C194.327 101.691 195.195 102.867 195.215 104.065C195.215 104.123 195.215 104.181 195.215 104.239C195.201 104.362 195.194 104.486 195.195 104.611C195.164 105.315 195.351 106.01 195.728 106.597C195.728 106.597 196.193 109.235 196.916 109.897C197.638 110.559 197.638 111.857 197.638 111.857C197.638 111.857 198.514 115.676 198.915 116.341C199.262 116.906 199.28 118.451 199.278 118.934C199.278 119.021 199.278 119.071 199.278 119.071C199.278 119.071 199.4 120.438 199.395 121.583C199.395 121.725 199.395 121.862 199.395 121.991C199.396 121.982 199.396 121.972 199.395 121.962C199.395 122.275 199.359 122.587 199.288 122.891L199.273 122.944C199.273 122.878 199.273 122.814 199.29 122.751C199.111 123.529 199.025 124.326 199.035 125.125C199.012 126.497 199.214 128.122 200.018 129.082C201.412 130.733 202.288 130.527 202.288 130.527C202.288 130.527 201.619 132.59 200.792 133.004C200.761 133.02 200.731 133.039 200.705 133.062C200.705 133.02 200.69 132.981 200.685 132.941C200.592 133.044 200.522 133.166 200.478 133.298C200.434 133.431 200.417 133.572 200.429 133.711C200.371 134.619 200.925 136.085 201.451 136.768C201.646 136.966 201.885 137.111 202.148 137.191C202.106 137.221 202.063 137.248 202.018 137.272C201.926 137.324 201.831 137.371 201.734 137.412C201.6 137.471 201.458 137.509 201.313 137.526C201.033 137.533 200.758 137.603 200.506 137.729C200.254 137.856 200.031 138.036 199.852 138.259C199.342 138.945 199.015 139.881 200.031 140.704L203.721 142.023C203.721 142.023 210.028 142.859 209.696 141.39Z" fill="url(#paint0_linear_2_128)"/>
<path d="M185.461 143.827L181.886 142.508C180.901 141.685 181.215 140.749 181.713 140.06C181.884 139.841 182.099 139.662 182.343 139.535C182.587 139.409 182.855 139.338 183.127 139.327C183.37 139.295 183.602 139.21 183.809 139.077C184.036 138.949 184.23 138.769 184.376 138.549C184.637 138.121 184.777 137.627 184.782 137.122C184.782 137.122 188.704 135.935 189.777 137.122C189.968 137.337 190.128 137.579 190.251 137.842C190.608 138.661 190.782 139.553 190.762 140.451C190.762 140.451 190.961 141.738 191.286 143.21C191.61 144.682 185.461 143.827 185.461 143.827Z" fill="#2D293D"/>
<path d="M202.937 142.007L199.362 140.688C198.376 139.865 198.69 138.929 199.188 138.243C199.358 138.023 199.573 137.843 199.817 137.716C200.06 137.59 200.328 137.519 200.6 137.51C200.742 137.495 200.88 137.456 201.009 137.396C201.103 137.355 201.195 137.308 201.285 137.256C202.283 136.689 202.258 135.297 202.258 135.297C202.258 135.297 206.177 134.11 207.252 135.297C207.396 135.457 207.522 135.634 207.627 135.824C208.299 137.024 208.225 138.625 208.225 138.625C208.225 138.625 208.424 139.915 208.736 141.385C209.047 142.854 202.937 142.007 202.937 142.007Z" fill="#2D293D"/>
<path opacity="0.1" d="M189.779 137.119C189.97 137.334 190.13 137.577 190.254 137.839L184.381 138.544C184.642 138.116 184.783 137.622 184.787 137.117C184.787 137.117 188.707 135.932 189.779 137.119Z" fill="black"/>
<path opacity="0.1" d="M207.632 135.829V136.966C206.718 138.52 202.298 138.18 201.014 137.402C201.108 137.36 201.201 137.314 201.29 137.262C202.288 136.695 202.263 135.302 202.263 135.302C202.263 135.302 206.182 134.115 207.257 135.302C207.401 135.463 207.527 135.64 207.632 135.829V135.829Z" fill="black"/>
<path d="M208.33 130.928C208.056 131.424 207.823 131.942 207.632 132.477V136.552C206.632 138.254 201.44 137.686 200.738 136.758C200.036 135.829 199.303 133.413 200.092 132.994C200.881 132.574 201.54 130.517 201.54 130.517C201.54 130.517 200.69 130.723 199.342 129.071C197.993 127.42 198.394 123.759 198.644 122.883C198.895 122.007 198.644 119.066 198.644 119.066C198.644 119.066 198.696 117.001 198.297 116.331C197.899 115.661 197.049 111.846 197.049 111.846C197.049 111.846 197.049 110.556 196.349 109.886C195.649 109.216 195.2 106.584 195.2 106.584C194.791 105.926 194.615 105.142 194.702 104.365C194.85 103.076 193.852 101.683 193.852 101.683L192.154 96.1091L190.555 91.9308L189.657 94.3549C189.657 94.3549 189.401 100.029 189.608 101.213C189.815 102.398 190.119 105.547 190.119 105.547C190.119 105.547 189.12 107.61 189.57 109.364C190.019 111.118 189.856 114.888 189.856 114.888C189.856 114.888 190.305 122.675 189.904 123.294C189.503 123.914 189.554 125.463 189.554 125.463C189.554 125.463 191.597 130 190.954 130.62C190.31 131.24 190.504 132.941 190.504 132.941C190.504 132.941 191.901 132.941 191.303 133.561C190.706 134.181 190.254 137.431 190.254 137.431L184.215 138.161C184.215 138.161 183.664 137.441 182.864 135.523C182.065 133.606 183.013 133.822 183.817 133.614C184.621 133.405 184.113 132.894 183.163 132.274C182.213 131.654 182.765 130.261 182.765 130.261C182.765 130.261 184.213 127.734 183.712 127.528C183.212 127.322 183.163 123.761 183.163 123.761C183.163 123.761 182.165 119.541 182.415 118.396C182.665 117.251 181.616 114.529 181.616 114.529L181.266 111.279C180.198 109.435 179.808 107.255 180.168 105.138V100.126C180.168 100.126 178.769 90.4298 178.57 85.5288C178.442 82.3897 178.478 78.1059 178.519 75.4338C178.544 73.9355 178.57 72.9411 178.57 72.9411L200.141 70.6198C200.141 70.6198 200.12 71.6485 200.531 73.9302C200.754 75.1542 201.098 76.7395 201.64 78.7205C203.187 84.3945 202.24 88.6229 202.24 88.6229L202.038 95.7952C202.038 95.7952 203.935 100.591 203.537 102.242C203.296 103.222 203.161 104.227 203.133 105.239C203.133 105.239 207.377 115.711 206.928 118.755C206.478 121.799 208.324 126.597 208.324 126.597C208.324 126.597 208.83 130 208.33 130.928Z" fill="#464353"/>
<path opacity="0.05" d="M195.997 104.054L202.564 103.149C202.564 103.149 198.844 107.072 195.997 104.054Z" fill="black"/>
<path opacity="0.1" d="M201.614 96.5206C201.614 96.5206 201.839 98.921 200.417 99.8231C200.417 99.8231 202.962 99.4116 201.614 96.5206Z" fill="black"/>
<path opacity="0.1" d="M201.211 88.8867C201.211 88.8867 195.721 93.5557 193.724 93.1679C191.727 92.7801 201.211 88.8867 201.211 88.8867Z" fill="black"/>
<path opacity="0.1" d="M187.856 106.244C187.856 106.244 183.687 107.222 183.562 108.953C183.436 110.683 187.856 106.244 187.856 106.244Z" fill="black"/>
<path opacity="0.05" d="M188.773 127.758C188.773 127.758 182.882 128.892 184.555 129.665C186.227 130.438 188.975 131.058 188.975 131.058C188.975 131.058 190.877 131.16 188.773 127.758Z" fill="black"/>
<g opacity="0.05">
<path opacity="0.05" d="M183.365 130.894C183.217 130.798 183.091 130.67 182.998 130.517C182.905 130.365 182.846 130.192 182.826 130.013L182.765 130.121C182.765 130.121 182.216 131.514 183.166 132.131C183.273 132.202 183.378 132.274 183.472 132.342C183.648 132.308 183.837 132.282 184.019 132.234C184.823 132.028 184.315 131.514 183.365 130.894Z" fill="black"/>
<path opacity="0.05" d="M190.954 130.48C191.117 130.327 191.112 129.931 191.012 129.425C190.757 129.823 190.683 130.446 190.678 130.918C190.74 130.754 190.834 130.605 190.954 130.48V130.48Z" fill="black"/>
<path opacity="0.05" d="M190.047 104.817C189.83 105.427 189.696 106.065 189.649 106.713C189.763 106.265 189.916 105.829 190.106 105.41L190.047 104.817Z" fill="black"/>
<path opacity="0.05" d="M203.539 102.11C203.579 101.925 203.597 101.735 203.593 101.546C203.519 101.931 203.468 102.287 203.43 102.601C203.463 102.44 203.499 102.287 203.539 102.11Z" fill="black"/>
<path opacity="0.05" d="M189.907 123.157C189.988 123.031 190.034 122.603 190.055 122.01C189.87 122.469 189.772 122.961 189.766 123.458C189.801 123.352 189.848 123.251 189.907 123.157V123.157Z" fill="black"/>
<path opacity="0.05" d="M191.132 132.886C190.823 133.92 190.593 134.979 190.446 136.051L184.407 136.771C184.407 136.771 183.855 136.051 183.056 134.133C182.992 133.985 182.934 133.834 182.885 133.68C182.522 133.851 182.374 134.239 182.854 135.37C183.653 137.28 184.208 138.008 184.208 138.008L190.246 137.285C190.246 137.285 190.696 134.036 191.293 133.416C191.6 133.118 191.411 132.962 191.132 132.886Z" fill="black"/>
<path opacity="0.05" d="M183.166 123.622C183.166 123.622 183.214 127.18 183.715 127.386C183.97 126.797 184.136 126.238 183.911 126.146C183.401 125.94 183.362 122.379 183.362 122.379C183.362 122.379 182.364 118.159 182.614 117.014C182.864 115.869 181.815 113.147 181.815 113.147L181.465 109.897C180.397 108.053 180.007 105.873 180.367 103.756V98.7443C180.367 98.7443 178.968 89.0476 178.769 84.1466C178.641 81.0075 178.677 76.7237 178.718 74.0516C178.718 73.5689 178.733 73.1416 178.741 72.7802L178.57 72.7986C178.57 72.7986 178.542 73.7905 178.519 75.2914C178.478 77.9635 178.439 82.2473 178.57 85.3837C178.769 90.2848 180.166 99.984 180.166 99.984V104.996C179.807 107.112 180.198 109.291 181.266 111.134L181.613 114.384C181.613 114.384 182.663 117.117 182.413 118.254C182.162 119.39 183.166 123.622 183.166 123.622Z" fill="black"/>
<path opacity="0.05" d="M200.943 135.381C200.452 134.647 200.125 133.81 199.985 132.93C199.37 133.505 200.077 135.737 200.751 136.623C201.448 137.552 206.642 138.119 207.645 136.415V135.434C206.284 136.813 201.601 136.259 200.943 135.381Z" fill="black"/>
<path opacity="0.05" d="M208.531 129.551C208.257 130.047 208.023 130.565 207.832 131.1V131.83C207.947 131.567 208.107 131.213 208.342 130.796C208.5 130.39 208.575 129.955 208.562 129.517C208.562 129.517 208.539 129.541 208.531 129.551Z" fill="black"/>
<path opacity="0.05" d="M201.249 130.366C201.439 129.969 201.603 129.559 201.742 129.14C201.742 129.14 200.892 129.346 199.543 127.694C198.563 126.494 198.507 124.226 198.647 122.743C198.392 123.622 197.996 127.283 199.344 128.934C200.225 130.013 200.892 130.298 201.249 130.366Z" fill="black"/>
<path opacity="0.05" d="M198.645 118.926C198.733 119.943 198.766 120.963 198.744 121.983C198.769 121.822 198.803 121.663 198.846 121.506C199.102 120.628 198.846 117.689 198.846 117.689C198.846 117.689 198.897 115.624 198.496 114.954C198.096 114.284 197.261 110.464 197.261 110.464C197.261 110.464 197.261 109.174 196.561 108.504C195.861 107.834 195.412 105.202 195.412 105.202C194.999 104.545 194.819 103.761 194.901 102.983C195.052 101.693 194.054 100.301 194.054 100.301L192.355 94.7295L190.757 90.5512L189.856 92.978C189.856 92.978 189.856 93.284 189.825 93.7693L190.555 91.7989L192.154 95.9693L193.852 101.54C193.852 101.54 194.85 102.933 194.7 104.223C194.617 105.001 194.797 105.785 195.21 106.441C195.21 106.441 195.66 109.079 196.359 109.744C197.059 110.409 197.056 111.704 197.056 111.704C197.056 111.704 197.907 115.521 198.305 116.188C198.703 116.856 198.645 118.926 198.645 118.926Z" fill="black"/>
</g>
<path d="M202.837 24.0174L202.462 25.9008L202.485 26.7396L202.5 27.3568L200.417 27.5784L200.184 27.1326C199.753 26.3255 198.856 24.6847 198.568 24.4315C198.182 24.0991 197.495 18.8604 198.313 19.1717C198.816 19.3724 199.229 19.7587 199.472 20.2558C199.472 20.2558 203.575 20.7412 202.837 24.0174Z" fill="#FFCDD3"/>
<path opacity="0.1" d="M202.5 27.3568L200.417 27.5784L200.184 27.1326C200.464 26.803 200.847 26.584 201.266 26.5128C201.685 26.4416 202.115 26.5227 202.482 26.7422L202.5 27.3568Z" fill="black"/>
<path d="M203.026 28.3777L200.279 29.0345L200.22 28.6125L200.064 27.4756C200.064 27.4756 201.152 25.9773 202.725 27.101L202.863 27.6787L203.026 28.3777Z" fill="white"/>
<path d="M158.52 24.2231L155.586 25.848L155.331 25.2783C155.053 24.6742 154.637 23.7642 154.522 23.4318C154.348 22.9306 153.125 22.2975 153.125 22.2975C150.061 19.2667 153.712 16.6605 153.712 16.6605C155.648 12.6378 157.798 18.0269 157.798 18.0269C157.798 18.0269 158.099 20.8678 157.887 21.0577C157.675 21.2477 157.675 22.0258 157.675 22.0258C157.955 22.5833 158.191 23.1628 158.382 23.7589C158.472 24.0464 158.52 24.2231 158.52 24.2231Z" fill="#FFCDD3"/>
<path opacity="0.1" d="M158.52 24.2231L155.586 25.848L155.331 25.2782C155.745 24.9195 157.213 23.6955 157.696 23.7457C157.926 23.7754 158.159 23.7816 158.39 23.7641C158.472 24.0464 158.52 24.2231 158.52 24.2231Z" fill="black"/>
<path d="M158.819 25.1384L155.523 26.8161L155.456 26.0854L155.41 25.579C155.41 25.579 157.32 23.8881 157.885 23.9541C158.17 23.9968 158.46 23.9968 158.745 23.9541L158.783 24.566L158.819 25.1384Z" fill="white"/>
<path d="M194.848 36.5286C194.848 36.5286 180.477 38.2036 183.163 37.3015C185.032 36.671 185.775 35.455 185.931 34.0833C186.059 32.9411 185.773 31.7093 185.397 30.6541C185.06 29.7181 184.632 28.8194 184.121 27.9715C184.121 27.9715 195.1 21.7304 192.907 27.4043C192.569 28.2626 192.359 29.1689 192.284 30.0923C192.218 31.0099 192.314 31.9323 192.567 32.8145C192.982 34.246 193.771 35.5313 194.848 36.5286V36.5286Z" fill="#FFCDD3"/>
<path opacity="0.1" d="M192.899 27.3964C192.561 28.2546 192.351 29.1609 192.276 30.0844C191.242 30.9839 190.108 30.9232 188.65 30.9232C187.532 30.9232 186.291 31.2028 185.397 30.6462C185.06 29.7102 184.632 28.8115 184.121 27.9635C184.121 27.9635 195.098 21.7225 192.899 27.3964Z" fill="black"/>
<path d="M188.456 31.3189C191.738 31.3189 194.398 28.5707 194.398 25.1807C194.398 21.7906 191.738 19.0424 188.456 19.0424C185.175 19.0424 182.515 21.7906 182.515 25.1807C182.515 28.5707 185.175 31.3189 188.456 31.3189Z" fill="#FFCDD3"/>
<path opacity="0.1" d="M194.848 36.5286C194.848 36.5286 180.477 38.2036 183.163 37.3015C185.032 36.671 185.775 35.455 185.931 34.0833C186.646 33.292 188.084 32.7037 188.995 32.3978C189.838 32.105 190.748 32.0893 191.6 32.3529C191.935 32.4572 192.254 32.6099 192.547 32.8066C192.966 34.2433 193.762 35.5318 194.848 36.5286V36.5286Z" fill="black"/>
<path opacity="0.1" d="M203.026 28.3777L200.279 29.0345L200.22 28.6125C200.514 28.195 200.926 27.8814 201.399 27.7143C201.871 27.5472 202.383 27.5348 202.863 27.6787L203.026 28.3777Z" fill="black"/>
<path opacity="0.1" d="M158.819 25.1385L155.523 26.8161L155.456 26.0854C156.524 25.4924 157.634 24.9836 158.776 24.5634L158.819 25.1385Z" fill="black"/>
<path opacity="0.1" d="M200.531 73.9355C194.962 74.8535 187.047 76.0247 185.791 75.629C184.746 75.3019 181.417 75.3362 178.519 75.4391C178.544 73.9408 178.57 72.9463 178.57 72.9463L200.141 70.6251C200.141 70.6251 200.12 71.6538 200.531 73.9355Z" fill="black"/>
<path d="M206.083 72.5849C206.083 72.5849 187.757 75.8347 185.791 75.2228C183.825 74.6108 173.726 75.2729 173.726 75.2729C169.181 78.4198 171.078 73.7772 171.078 73.7772C171.078 73.7772 170.68 71.3531 171.229 69.3932C171.597 67.9542 171.849 66.486 171.982 65.0038C171.982 65.0038 171.882 61.907 172.431 61.1843C172.98 60.4615 173.631 55.3046 173.631 55.3046C173.631 55.3046 174.129 51.7963 174.081 51.0234C174.032 50.2505 174.229 48.0822 174.229 48.0822L174.88 44.471C171.134 43.9567 159.748 36.7343 159.748 36.7343C159.2 34.3101 154.956 28.6362 154.956 28.6362C154.894 28.1591 154.776 27.6914 154.606 27.2434C154.307 26.4178 158.801 24.7665 158.801 24.7665C158.801 24.7665 162.146 28.987 162.846 30.1318C163.545 31.2767 165.94 33.3816 165.94 33.3816C166.313 33.3421 166.689 33.3927 167.038 33.5294L167.097 33.5478C167.9 33.8733 168.652 34.3176 169.331 34.8667C170.457 34.8391 171.55 35.2648 172.378 36.0538C172.378 36.0538 174.42 35.7425 174.775 36.1039C175.13 36.4653 176.872 36.1039 176.872 36.1039C176.872 36.1039 178.618 32.2869 179.767 33.3948C180.916 34.5027 185.791 34.45 185.791 34.45C186.439 33.5584 188.02 32.92 189.008 32.6035C189.851 32.3119 190.76 32.2963 191.612 32.5586C191.98 32.6719 192.326 32.8504 192.634 33.0862L195.598 36.0775C195.598 36.0775 196.446 34.9406 196.346 34.6847C196.247 34.4289 197.345 34.2205 197.345 34.2205C197.345 34.2205 198.793 33.7562 199.342 33.6006C199.891 33.4449 200.394 34.0596 200.44 34.115C200.422 34.049 200.046 32.796 200.184 31.8464C200.322 30.8968 199.584 30 199.584 30C201.331 25.5631 205.276 29.2772 205.276 29.2772C205.276 29.2772 205.725 31.7013 205.327 32.6299C204.928 33.5584 205.725 35.5183 205.625 36.0353C205.526 36.5523 205.827 37.4281 205.827 38.4093C205.827 39.3906 205.316 41.245 205.028 42.0706C204.739 42.8963 202.332 44.7533 202.332 44.7533C202.332 44.7533 202.181 47.6945 201.131 49.3959C200.082 51.0972 200.741 56.9163 200.741 56.9163C200.741 56.9163 201.739 61.456 202.988 62.9015C204.236 64.347 206.083 72.5849 206.083 72.5849Z" fill="#3F3D56"/>
<path opacity="0.1" d="M179.369 38.6415C179.369 38.6415 178.82 36.9401 178.319 36.795C177.823 36.6062 177.339 36.3823 176.872 36.125L177.193 35.4893C177.193 35.4893 179.068 36.0168 179.369 36.5892C179.67 37.1616 179.369 38.6415 179.369 38.6415Z" fill="black"/>
<path opacity="0.1" d="M169.331 34.8773C169.232 35.4048 164.786 35.8559 164.786 35.8559L167.033 33.5294L167.09 33.5505C167.895 33.8777 168.651 34.3247 169.331 34.8773V34.8773Z" fill="black"/>
<path d="M156.472 28.2089C156.692 28.2089 156.871 28.0246 156.871 27.7974C156.871 27.5701 156.692 27.3859 156.472 27.3859C156.252 27.3859 156.074 27.5701 156.074 27.7974C156.074 28.0246 156.252 28.2089 156.472 28.2089Z" fill="#575988"/>
<path d="M156.983 29.0345C157.203 29.0345 157.382 28.8503 157.382 28.623C157.382 28.3958 157.203 28.2115 156.983 28.2115C156.763 28.2115 156.585 28.3958 156.585 28.623C156.585 28.8503 156.763 29.0345 156.983 29.0345Z" fill="#575988"/>
<path d="M157.484 29.7968C157.704 29.7968 157.882 29.6126 157.882 29.3853C157.882 29.1581 157.704 28.9738 157.484 28.9738C157.264 28.9738 157.085 29.1581 157.085 29.3853C157.085 29.6126 157.264 29.7968 157.484 29.7968Z" fill="#575988"/>
<path d="M158.007 30.6198C158.227 30.6198 158.405 30.4356 158.405 30.2083C158.405 29.9811 158.227 29.7968 158.007 29.7968C157.787 29.7968 157.609 29.9811 157.609 30.2083C157.609 30.4356 157.787 30.6198 158.007 30.6198Z" fill="#575988"/>
<path d="M205.077 30.4985C205.256 30.4985 205.401 30.3485 205.401 30.1635C205.401 29.9785 205.256 29.8285 205.077 29.8285C204.897 29.8285 204.752 29.9785 204.752 30.1635C204.752 30.3485 204.897 30.4985 205.077 30.4985Z" fill="#575988"/>
<path d="M205.128 31.2608C205.307 31.2608 205.452 31.1108 205.452 30.9258C205.452 30.7408 205.307 30.5908 205.128 30.5908C204.949 30.5908 204.803 30.7408 204.803 30.9258C204.803 31.1108 204.949 31.2608 205.128 31.2608Z" fill="#575988"/>
<path d="M205.171 32.0205C205.35 32.0205 205.495 31.8705 205.495 31.6855C205.495 31.5005 205.35 31.3505 205.171 31.3505C204.992 31.3505 204.847 31.5005 204.847 31.6855C204.847 31.8705 204.992 32.0205 205.171 32.0205Z" fill="#575988"/>
<path opacity="0.1" d="M179.387 52.6219C179.338 52.5613 190.596 67.246 199.334 58.7601C199.342 58.7628 185.535 60.6963 179.387 52.6219Z" fill="black"/>
<path opacity="0.1" d="M172.927 60.2558C172.927 60.2558 179.663 60.4457 180.367 62.4478V64.5317C180.175 64.6416 179.96 64.6993 179.74 64.6993C179.521 64.6993 179.305 64.6416 179.114 64.5317C178.434 64.1518 174.362 62.0152 172.927 63.0439V60.2558Z" fill="black"/>
<path d="M173.052 60.2558C173.052 60.2558 179.494 60.4378 180.168 62.3476V64.3312C179.985 64.4365 179.778 64.4918 179.568 64.4918C179.358 64.4918 179.152 64.4365 178.968 64.3312C178.319 63.9725 174.425 61.9334 173.052 62.9147V60.2558Z" fill="#3F3D56"/>
<path opacity="0.1" d="M176.604 45.1463C177.292 46.7919 178.169 48.3462 179.216 49.7757C180.354 51.3558 181.734 52.734 183.301 53.8564C183.301 53.8564 176.716 46.1012 176.604 45.1463Z" fill="black"/>
<path opacity="0.1" d="M174.4 37.0614C174.4 37.0614 175.523 42.0733 178.419 43.7747L174.4 37.0614Z" fill="black"/>
<path opacity="0.1" d="M172.676 37.5679C172.648 37.4755 171.678 41.5246 176.409 43.7747C176.409 43.7747 174.4 43.0704 172.676 37.5679Z" fill="black"/>
<path opacity="0.1" d="M202.089 34.2073C202.015 34.2073 204.423 35.79 205.079 36.5286C205.079 36.5286 203.511 34.1018 202.089 34.2073Z" fill="black"/>
<path d="M186.85 30.7438C186.851 30.8777 186.879 31.01 186.932 31.1322C186.985 31.2545 187.062 31.3641 187.158 31.4541C187.254 31.5441 187.367 31.6125 187.49 31.6551C187.612 31.6976 187.743 31.7134 187.872 31.7014C189.682 31.8174 191.569 31.8992 193.234 31.1738C193.546 31.0586 193.827 30.8667 194.051 30.6146C194.347 30.2374 194.406 29.7256 194.526 29.2561C194.761 28.3381 195.261 27.523 195.621 26.6499C196.23 25.1748 196.434 23.5548 196.211 21.9678C196.164 21.4813 196.008 21.0127 195.757 20.5988C195.277 19.8892 194.401 19.6017 193.765 19.0372C193.129 18.4727 192.721 17.6101 191.978 17.1907C191.309 16.8056 190.489 16.853 189.736 16.9849C188.254 17.2449 186.834 17.7955 185.553 18.6072C185.122 18.871 184.649 19.1954 184.154 19.0978C183.72 19.0134 183.403 18.6362 183.133 18.2827C182.784 19.1269 182.638 20.0452 182.706 20.9601C182.725 21.0944 182.721 21.231 182.693 21.3637C182.631 21.5242 182.536 21.669 182.415 21.7884C181.968 22.316 181.69 23.1733 182.132 23.7167C182.323 23.9514 182.619 24.0807 182.806 24.3207C183.14 24.7507 183.028 25.3759 183.02 25.9245C183.002 26.1161 183.049 26.3083 183.153 26.4679C183.25 26.5609 183.368 26.6266 183.496 26.6585C183.625 26.6904 183.759 26.6874 183.886 26.6499C184.139 26.5712 184.404 26.5452 184.667 26.5734C184.944 26.6664 185.183 26.852 185.346 27.101C186.171 28.2115 186.498 29.4196 186.85 30.7438Z" fill="#2D293D"/>
<g opacity="0.1">
<path opacity="0.1" d="M194.263 30.1477C194.038 30.3998 193.758 30.5918 193.446 30.7069C191.771 31.427 189.886 31.3453 188.084 31.2345C187.89 31.2365 187.699 31.1922 187.524 31.1052C187.249 30.939 187.144 30.5908 187.06 30.2743C186.707 28.9554 186.383 27.7446 185.546 26.6447C185.384 26.3909 185.145 26.2005 184.866 26.1039C184.604 26.0783 184.338 26.1042 184.085 26.1804C183.958 26.2182 183.824 26.2216 183.696 26.1902C183.567 26.1587 183.449 26.0936 183.352 26.001C183.248 25.8414 183.201 25.6492 183.219 25.4576C183.219 24.9037 183.339 24.2838 183.005 23.8538C182.818 23.6138 182.522 23.4845 182.331 23.2471C182.206 23.0721 182.129 22.8654 182.109 22.6489C182.089 22.4325 182.126 22.2144 182.216 22.0179C181.897 22.5455 181.761 23.2076 182.132 23.6613C182.323 23.896 182.619 24.0253 182.806 24.2653C183.14 24.6979 183.028 25.3205 183.02 25.8691C183.001 26.0604 183.047 26.2528 183.15 26.4125C183.247 26.506 183.366 26.5719 183.495 26.6038C183.624 26.6357 183.758 26.6325 183.886 26.5945C184.139 26.5158 184.404 26.4898 184.667 26.518C184.944 26.611 185.183 26.7967 185.346 27.0456C186.181 28.1456 186.508 29.3537 186.861 30.6779C186.902 31.0037 187.059 31.3019 187.302 31.5141C187.477 31.6012 187.67 31.6446 187.864 31.6407C189.674 31.7568 191.561 31.8412 193.226 31.1131C193.539 30.9988 193.819 30.8067 194.043 30.5539C194.156 30.4053 194.242 30.2375 194.299 30.058C194.301 30.0923 194.283 30.1213 194.263 30.1477Z" fill="black"/>
<path opacity="0.1" d="M182.706 21.2028C182.786 21.1128 182.848 21.0069 182.887 20.8916C182.91 20.7581 182.91 20.6214 182.887 20.488C182.838 19.7359 182.932 18.9811 183.166 18.2669L183.133 18.2274C182.783 19.0702 182.637 19.988 182.706 20.9021C182.714 21.0022 182.714 21.1027 182.706 21.2028V21.2028Z" fill="black"/>
</g>
<path opacity="0.1" d="M185.791 34.4631C185.791 34.4631 193.213 35.4813 193.88 34.3286Z" fill="black"/>
<path opacity="0.1" d="M200.22 31.2899C200.22 31.2899 204.346 31.2899 205.253 32.8936Z" fill="black"/>
<path d="M223.305 173.772C222.081 174.902 220.491 175.516 218.85 175.492C218.431 175.492 217.851 175.573 217.849 176.006C217.859 176.133 217.901 176.255 217.971 176.36C218.489 177.252 219.307 177.916 220.269 178.224C221.163 178.504 222.118 178.457 223.05 178.406L225.769 178.261C226.28 178.232 226.791 178.206 227.301 178.14C227.812 178.074 228.369 177.966 228.902 177.876C230.214 177.684 231.54 177.62 232.863 177.686C233.215 177.7 233.629 177.686 233.838 177.423C234.047 177.159 233.94 176.655 233.861 176.259C233.698 175.444 233.861 174.59 233.71 173.772C233.455 172.337 232.252 171.237 230.935 170.717C229.709 170.237 227.539 169.686 226.38 170.488C225.156 171.329 224.408 172.735 223.305 173.772Z" fill="#3F3D56"/>
<path d="M226.007 125.695C226.247 126.874 227.352 127.776 227.383 128.979C227.411 129.944 226.745 130.754 226.265 131.58C225.812 132.435 225.43 133.328 225.123 134.249C224.219 136.648 223.098 138.954 221.773 141.134C221.135 142.189 220.42 143.316 220.565 144.542C220.667 145.116 220.863 145.667 221.145 146.172L223.06 150.103C223.48 150.887 223.808 151.721 224.038 152.585C224.204 153.331 224.219 154.104 224.316 154.864C224.618 157.275 225.713 159.702 225.065 162.039C225.008 162.239 224.809 162.482 224.653 162.342C225.287 163.563 225.795 164.793 225.746 166.178C225.721 166.903 225.506 167.66 225.764 168.335C225.874 168.618 226.065 168.881 226.063 169.185C226.063 169.385 225.974 169.572 225.953 169.768C225.9 170.324 226.395 170.788 226.908 170.965C227.421 171.142 227.981 171.129 228.499 171.29C229.495 171.598 230.207 172.485 231.052 173.099C231.919 173.716 232.941 174.06 233.994 174.088C234.144 174.105 234.295 174.074 234.428 173.999C234.503 173.931 234.563 173.847 234.605 173.754C234.646 173.66 234.668 173.558 234.668 173.455C234.714 172.963 234.642 172.466 234.459 172.009C234.275 171.551 233.986 171.148 233.616 170.833C233.454 170.728 233.319 170.583 233.225 170.411C233.178 170.259 233.165 170.097 233.189 169.939C233.344 167.777 233.306 165.605 233.077 163.45C232.974 162.767 232.941 162.075 232.978 161.385C233.031 160.81 233.2 160.24 233.138 159.667C233.077 159.095 232.794 158.573 232.628 158.021C232.332 157.04 232.413 155.985 232.372 154.959C232.321 153.176 231.926 151.424 231.532 149.683C231.377 149 231.205 148.285 230.738 147.779C230.34 147.349 229.696 146.937 229.847 146.365C229.931 146.154 230.055 145.963 230.212 145.803C230.397 145.563 230.533 145.287 230.611 144.991C230.689 144.696 230.708 144.387 230.667 144.083C230.835 144.127 231.012 144.11 231.169 144.034C231.326 143.958 231.453 143.828 231.527 143.666C234.637 142.15 237.145 139.116 238.263 135.753C238.329 135.503 238.431 135.265 238.564 135.046C238.853 134.629 239.353 134.45 239.798 134.22C241.192 133.495 242.154 132.136 243.038 130.807C243.549 130.037 244.059 129.24 244.289 128.333C244.41 127.746 244.467 127.147 244.46 126.547L244.539 123.447C244.557 123.243 244.538 123.038 244.483 122.841C244.407 122.657 244.297 122.49 244.159 122.35C243.31 121.422 242.194 120.801 240.977 120.578C240.16 120.427 239.325 120.456 238.498 120.385C236.894 120.248 235.311 119.733 233.708 119.857C231.188 120.05 228.943 121.854 227.756 124.16C227.34 124.972 226.9 125.679 226.007 125.695Z" fill="#464353"/>
<path d="M212.014 105.542C212.048 106.02 211.986 106.501 211.83 106.953C211.634 107.386 211.141 107.723 210.709 107.547C210.84 107.243 210.495 106.898 210.173 106.935C210.015 106.972 209.868 107.049 209.745 107.159C209.621 107.268 209.526 107.407 209.466 107.562C209.253 108.006 209.181 108.507 209.262 108.995C209.364 109.602 209.703 110.184 209.614 110.794C209.542 111.3 209.182 111.804 209.374 112.274C209.498 112.488 209.654 112.681 209.836 112.846C210.088 113.167 210.212 113.576 210.181 113.988C210.15 114.4 209.967 114.785 209.67 115.062L214.501 115.162C214.325 115.996 214.688 116.848 215.101 117.589C216.26 119.627 217.86 121.36 219.775 122.652C221.691 123.944 223.87 124.759 226.142 125.035C226.019 125.11 225.914 125.211 225.834 125.332C225.753 125.454 225.7 125.592 225.678 125.737C225.656 125.882 225.665 126.031 225.705 126.172C225.745 126.312 225.815 126.443 225.91 126.552C226.303 126.956 226.969 126.906 227.462 126.645C227.955 126.383 228.341 125.951 228.79 125.616C229.583 125.035 230.551 124.766 231.52 124.856C232.125 124.917 232.712 125.12 233.32 125.152C235.107 125.249 236.639 123.92 238.36 123.376C239.614 122.978 241.036 122.978 242.088 122.168C242.543 121.82 242.915 121.248 242.783 120.683C242.673 120.359 242.499 120.061 242.272 119.81C241.667 119 241.309 118.027 240.875 117.106C240.015 115.284 238.831 113.644 237.385 112.274C236.293 111.288 235.136 110.382 233.922 109.562C233.629 109.338 233.316 109.143 232.988 108.979C232.564 108.786 232.094 108.694 231.711 108.451C231.144 108.082 230.817 107.431 230.381 106.906C229.423 105.75 227.952 105.22 226.773 104.313C225.981 103.703 225.282 102.901 224.337 102.609C223.877 102.464 223.39 102.453 222.93 102.311C221.886 101.983 221.125 101.026 220.101 100.638C219.291 100.332 218.398 100.411 217.547 100.303C216.589 100.181 215.673 99.8208 214.879 99.2533C214.623 99.038 214.336 98.8654 214.029 98.7416C212.734 98.3354 212.63 100.825 212.497 101.688C212.326 102.97 212.014 104.244 212.014 105.542Z" fill="white"/>
<path d="M213.276 113.893C213.493 116.325 211.715 118.681 212.234 121.063C212.344 121.569 212.555 122.052 212.632 122.566C212.849 123.978 212.032 125.315 211.253 126.497L204.563 136.639C204.295 137.084 203.974 137.494 203.608 137.858C202.332 139.032 200.411 138.913 198.731 139.261C197.551 139.512 196.437 140.021 195.463 140.754C195.419 140.789 195.39 140.841 195.383 140.897C195.375 140.954 195.389 141.012 195.422 141.058C195.7 141.448 196.067 141.76 196.491 141.966C196.915 142.172 197.383 142.265 197.85 142.237C198.027 142.474 197.85 142.828 197.608 142.999C197.25 143.263 196.755 143.323 196.683 143.954C196.659 144.173 196.702 144.394 196.806 144.587C197.076 145.012 197.495 145.313 197.976 145.426C200.291 146.159 202.794 144.872 204.528 143.123C206.261 141.374 207.505 139.166 209.205 137.388C210.148 136.402 211.217 135.56 212.188 134.605C214.123 132.698 215.63 130.385 217.08 128.066C217.517 127.367 217.958 126.65 218.14 125.84C218.321 125.03 218.237 124.21 218.444 123.426C218.714 122.4 219.442 121.58 220.047 120.72C221.234 119.032 222.029 116.966 221.87 114.885C221.712 112.804 220.466 110.752 218.566 110.045C217.977 109.803 217.328 109.762 216.715 109.929C215.936 110.177 215.362 110.841 214.831 111.48L213.554 112.994C213.243 113.329 212.999 113.724 212.836 114.157C212.754 114.375 212.734 114.613 212.78 114.842C212.825 115.071 212.933 115.282 213.092 115.45" fill="#FBBEBE"/>
<path d="M216.666 103.917C215.788 103.97 214.82 104.059 214.2 104.708C213.94 105.006 213.729 105.347 213.577 105.716C212.974 106.985 212.387 108.312 212.343 109.726C212.308 110.855 212.624 111.96 212.79 113.076C212.928 114.004 212.578 114.951 212.512 115.89C213.602 115.545 215.042 115.075 216.031 114.492C216.705 114.094 217.356 113.64 218.091 113.387C219.141 113.025 220.9 113.651 221.898 114.152C221.952 113.429 221.426 112.168 221.482 111.443C221.49 111.137 221.542 110.835 221.638 110.546C221.787 110.24 221.964 109.949 222.166 109.678C222.546 109.04 222.721 108.294 222.666 107.546C222.61 106.799 222.327 106.089 221.857 105.518C220.971 104.489 219.585 104.104 218.262 103.935C217.429 103.836 216.59 103.806 215.752 103.846" fill="white"/>
<path d="M205.313 103.956C208.733 104.08 211.61 101.317 211.739 97.7837C211.868 94.2503 209.2 91.2849 205.779 91.1602C202.359 91.0356 199.482 93.7989 199.353 97.3323C199.224 100.866 201.893 103.831 205.313 103.956Z" fill="#FBBEBE"/>
<path d="M197.623 90.8286L197.526 89.6214C198.494 89.9207 199.454 89.0951 200.111 88.2296C200.769 87.364 201.386 86.3386 202.352 86.0016C203.524 85.5956 204.723 86.352 205.806 86.9933C207.017 87.7474 208.358 88.2533 209.755 88.4834C209.979 88.4992 210.2 88.5445 210.412 88.6182C211.122 88.908 211.43 89.8536 211.504 90.7036C211.578 91.5536 211.517 92.4515 211.844 93.2183C212.078 93.7997 212.538 94.2414 212.808 94.8161C213.518 96.3571 212.703 98.3994 213.447 99.9126L211.531 97.9608C211.356 97.7828 211.107 97.5943 210.9 97.7319C210.738 97.8421 210.716 98.0921 210.645 98.2901C210.432 98.8683 209.716 99.0165 209.212 98.7658C208.708 98.5151 208.351 97.998 207.98 97.5252C207.141 96.4229 206.129 95.4437 204.921 94.9431C204.391 94.7161 203.821 94.6082 203.248 94.6265C202.675 94.6447 202.111 94.7887 201.595 95.0489C200.649 95.5555 199.925 96.7908 198.788 96.7942C197.229 96.7981 196.69 93.78 196.013 92.5701C196.284 92.3751 196.48 92.0879 196.567 91.7591C196.654 91.4302 196.626 91.0805 196.488 90.7714C196.594 90.7304 197.606 90.6432 197.623 90.8286Z" fill="#2C2A36"/>
<defs>
<linearGradient id="paint0_linear_2_128" x1="180.326" y1="144.073" x2="180.326" y2="15.1728" gradientUnits="userSpaceOnUse">
<stop stop-color="#808080" stop-opacity="0.25"/>
<stop offset="0.54" stop-color="#808080" stop-opacity="0.12"/>
<stop offset="1" stop-color="#808080" stop-opacity="0.1"/>
</linearGradient>
</defs>
</svg>
