<svg width="41" height="41" viewBox="0 0 41 41" fill="none" xmlns="http://www.w3.org/2000/svg">
<path d="M22.2083 17.0833H18.7917V13.6666H22.2083V17.0833ZM22.2083 10.25H18.7917V1.70831H22.2083V10.25ZM11.9583 30.75C10.0792 30.75 8.55876 32.2875 8.55876 34.1666C8.55876 36.0458 10.0792 37.5833 11.9583 37.5833C13.8375 37.5833 15.375 36.0458 15.375 34.1666C15.375 32.2875 13.8375 30.75 11.9583 30.75ZM29.0417 30.75C27.1625 30.75 25.6421 32.2875 25.6421 34.1666C25.6421 36.0458 27.1625 37.5833 29.0417 37.5833C30.9208 37.5833 32.4583 36.0458 32.4583 34.1666C32.4583 32.2875 30.9208 30.75 29.0417 30.75ZM13.8375 22.2083H26.5646C27.8458 22.2083 28.9733 21.5079 29.5542 20.4487L35.875 8.47331L32.8854 6.83331L26.5646 18.7916H14.5721L7.29459 3.41665H1.70834V6.83331H5.12501L11.275 19.7996L8.96876 23.9679C7.72168 26.2571 9.36168 29.0416 11.9583 29.0416H32.4583V25.625H11.9583L13.8375 22.2083Z" fill="black"/>
</svg>
