<svg width="44" height="44" viewBox="0 0 44 44" fill="none" xmlns="http://www.w3.org/2000/svg">
<path d="M24.145 7.33335L33 16.1884V36.6667H11V7.33335H24.145ZM25.6667 3.66669H11C8.98334 3.66669 7.33334 5.31669 7.33334 7.33335V36.6667C7.33334 38.6834 8.98334 40.3334 11 40.3334H33C35.0167 40.3334 36.6667 38.6834 36.6667 36.6667V14.6667L25.6667 3.66669ZM27.5 20.1667H20.1667V22H25.6667C26.675 22 27.5 22.825 27.5 23.8334V29.3334C27.5 30.3417 26.675 31.1667 25.6667 31.1667H23.8333V33H20.1667V31.1667H16.5V27.5H23.8333V25.6667H18.3333C17.325 25.6667 16.5 24.8417 16.5 23.8334V18.3334C16.5 17.325 17.325 16.5 18.3333 16.5H20.1667V14.6667H23.8333V16.5H27.5V20.1667Z" fill="black"/>
</svg>
